<svg width="120" height="120" viewBox="0 0 120 120" fill="none" xmlns="http://www.w3.org/2000/svg">
<rect width="120" height="120" fill="#DEEEEC"/>
<path d="M71.75 72.7399C70.7 72.7399 69.9 73.5399 69.9 74.5899V75.0799C69.9 79.0899 68.36 82.7999 65.52 85.5799C62.74 88.3599 59.04 89.8999 55.09 89.8399C47 89.7799 40.46 83.1699 40.46 75.0799V70.9999C40.46 69.9499 39.66 69.1499 38.61 69.1499C37.56 69.1499 36.76 69.9499 36.76 70.9999V75.0799C36.76 85.2099 44.97 93.4799 55.04 93.5399C55.1 93.5399 55.16 93.5399 55.16 93.5399C60.04 93.5399 64.61 91.6299 68.13 88.2299C71.65 84.7099 73.63 80.0799 73.63 75.0799V74.5899C73.6 73.5399 72.8 72.7399 71.75 72.7399Z" fill="#036C5F"/>
<path d="M46.19 59.0902C46.19 54.8902 42.79 51.4302 38.6 51.4302C34.4 51.4402 31 54.9002 31 59.0902C31 63.2802 34.4 66.7502 38.59 66.7502C42.79 66.7502 46.19 63.2902 46.19 59.0902ZM33.78 58.9802C33.78 56.3502 35.91 54.2202 38.54 54.2202C41.17 54.2202 43.3 56.3502 43.3 58.9802C43.3 61.6102 41.17 63.7402 38.54 63.7402C35.91 63.7402 33.78 61.6102 33.78 58.9802Z" fill="#036C5F"/>
<path d="M89.5299 48.47L86.88 31.43C86.82 29.15 84.9 27.3 82.56 27.3C81.94 27.3 81.45 27.61 81.08 28.04C80.89 26.86 79.84 26 78.67 26C77.74 26 76.82 26.43 76.26 27.17C75.83 27.73 75.58 28.47 75.58 29.15C75.58 30.94 76.94 32.36 78.67 32.36C79.9 32.36 80.89 31.5 81.08 30.32C81.39 30.75 81.94 31.06 82.56 31.06C82.93 31.06 83.18 31.31 83.18 31.68C83.18 31.8 83.18 31.87 83.18 31.99L85.83 49.15C86.82 55.39 83.85 61.56 78.48 64.4C76.32 65.57 73.91 66.19 71.44 66.19C68.97 66.19 66.56 65.57 64.4 64.4C59.34 61.44 56.37 55.32 57.36 49.09L60.02 31.93C60.02 31.81 60.02 31.74 60.02 31.62C60.02 31.25 60.27 31 60.64 31C61.26 31 61.75 30.69 62.06 30.26C62.25 31.43 63.23 32.3 64.47 32.3C65.46 32.3 66.32 31.87 66.88 31.13C67.31 30.57 67.56 29.83 67.56 29.15C67.56 27.36 66.2 26 64.47 26C63.24 26 62.25 26.86 62.06 28.04C61.75 27.61 61.2 27.3 60.58 27.3C58.23 27.3 56.32 29.15 56.26 31.44L53.6 48.47C52.37 56.25 56.07 63.97 62.8 67.55C65.45 68.97 68.54 69.77 71.57 69.77C74.66 69.77 77.68 69.03 80.34 67.55C87.06 63.91 90.7699 56.25 89.5299 48.47Z" fill="#036C5F"/>
</svg>
