<svg width="60" height="60" viewBox="0 0 60 60" fill="none" xmlns="http://www.w3.org/2000/svg">
<rect width="60" height="60" fill="#816ca9"/>
<path d="M27.5203 25.96H32.7203V31.16H37.9203V36.36H32.7203V41.56H27.5203V36.36H22.3203V31.16H27.5203V25.96Z" stroke="white" stroke-width="1.2" stroke-miterlimit="10" stroke-linecap="round" stroke-linejoin="round"/>
<path d="M43.12 46.24H17.12C15.3975 46.24 14 44.8425 14 43.12V24.4C14 22.6775 15.3975 21.28 17.12 21.28H43.12C44.8425 21.28 46.24 22.6775 46.24 24.4V43.12C46.24 44.8425 44.8425 46.24 43.12 46.24Z" stroke="white" stroke-width="1.2" stroke-miterlimit="10" stroke-linecap="round" stroke-linejoin="round"/>
<path d="M22.8398 19.2V17.64C22.8398 15.6302 24.47 14 26.4798 14H33.7598C35.7696 14 37.3998 15.6302 37.3998 17.64V19.2" stroke="white" stroke-width="1.2" stroke-miterlimit="10" stroke-linecap="round" stroke-linejoin="round"/>
<path d="M26.4805 19.1999V17.6399H33.7605V19.1999" stroke="white" stroke-width="1.2" stroke-miterlimit="10" stroke-linecap="round" stroke-linejoin="round"/>
<path d="M40.5195 19.2H42.5989" stroke="white" stroke-width="1.2" stroke-miterlimit="10" stroke-linecap="round" stroke-linejoin="round"/>
<path d="M17.6396 19.2H19.719" stroke="white" stroke-width="1.2" stroke-miterlimit="10" stroke-linecap="round" stroke-linejoin="round"/>
</svg>
