<svg width="120" height="120" viewBox="0 0 120 120" fill="none" xmlns="http://www.w3.org/2000/svg">
<rect width="120" height="120" fill="#DEEEEC"/>
<path d="M46.4785 63.4001V65.7548C46.4785 66.5227 47.1005 67.1446 47.8683 67.1446C48.6362 67.1446 49.2581 66.5227 49.2581 65.7548V63.4001C49.2581 62.6322 48.6362 62.0103 47.8683 62.0103C47.1015 62.0103 46.4785 62.6322 46.4785 63.4001Z" fill="#036C5F"/>
<path d="M72.945 67.1446C73.7128 67.1446 74.3348 66.5227 74.3348 65.7548V63.4001C74.3348 62.6322 73.7128 62.0103 72.945 62.0103C72.1771 62.0103 71.5552 62.6322 71.5552 63.4001V65.7548C71.5552 66.5217 72.1771 67.1446 72.945 67.1446Z" fill="#036C5F"/>
<path d="M33.6529 70.7197C37.2841 82.2649 48.0871 90.244 60.278 90.244C72.4659 90.244 83.263 82.2669 86.8962 70.7207C89.0055 70.5275 90.9828 69.5468 92.4091 67.9549C94.0049 66.1728 94.7688 63.7766 94.5046 61.3804C94.0768 57.5087 90.9562 54.3871 87.0834 53.9593C87.0214 53.9524 86.9553 53.9514 86.8932 53.9465C85.2048 48.5982 81.881 43.793 77.4514 40.3313C76.8472 39.8582 75.9729 39.9656 75.5008 40.5699C75.0276 41.1751 75.1351 42.0484 75.7393 42.5205C79.5637 45.5091 82.4596 49.6125 84.0328 54.188C82.7208 54.5231 81.4996 55.1628 80.4893 56.0736C79.9196 56.5871 79.8742 57.4663 80.3878 58.036C80.6618 58.3406 81.0403 58.4954 81.4198 58.4954C81.7519 58.4954 82.0841 58.3771 82.3502 58.1376C83.3191 57.2633 84.5808 56.7537 85.9026 56.7014C85.9036 56.7014 85.9046 56.7014 85.9056 56.7014L85.9184 56.7005C86.2515 56.6886 86.5265 56.6945 86.7789 56.7231C89.3692 57.009 91.4559 59.0966 91.7417 61.686C91.9221 63.3212 91.4244 64.8895 90.3391 66.1008C89.2687 67.2965 87.734 67.9825 86.1303 67.9825C86.1057 67.9825 86.083 67.9884 86.0583 67.9894C85.3733 67.8859 84.7001 68.3028 84.5118 68.9899C81.5311 79.8678 71.5659 87.4654 60.279 87.4654C48.993 87.4654 39.0268 79.8747 36.0422 69.0056C35.8598 68.3393 35.2221 67.9243 34.5558 67.9963C34.5124 67.9924 34.471 67.9835 34.4267 67.9835C32.823 67.9835 31.2893 67.2975 30.2178 66.1018C29.1326 64.8904 28.6338 63.3222 28.8152 61.687C29.1011 59.0966 31.1877 57.01 33.7781 56.7241C34.0314 56.6955 34.3074 56.6886 34.6445 56.7014C35.9692 56.7527 37.2349 57.2623 38.2067 58.1395C38.4719 58.3791 38.805 58.4973 39.1362 58.4973C39.5157 58.4973 39.8942 58.3426 40.1692 58.038C40.6827 57.4683 40.6374 56.5891 40.0667 56.0755C39.0515 55.1598 37.8213 54.5192 36.5015 54.185C39.015 46.8555 44.8265 41.0558 52.155 38.5532C52.7139 41.8473 55.5812 44.3657 59.0311 44.3657C62.2838 44.3657 64.4691 42.1805 64.4691 38.9277C64.4691 36.1885 62.2395 33.9589 59.4993 33.9589C58.7315 33.9589 58.1095 34.5809 58.1095 35.3487C58.1095 36.1166 58.7315 36.7385 59.4993 36.7385C60.7068 36.7385 61.6895 37.7203 61.6895 38.9277C61.6895 40.6418 60.7452 41.5861 59.0311 41.5861C56.7128 41.5861 54.8282 39.7005 54.8282 37.3832C54.8282 37.1979 54.839 37.0155 54.8568 36.8351V36.8342C55.1357 33.954 57.5319 31.7816 60.4298 31.7816C64.4819 31.7816 67.779 35.0787 67.779 39.1308C67.779 44.3874 63.5021 48.6642 58.2455 48.6642C57.4777 48.6642 56.8557 49.2862 56.8557 50.054C56.8557 50.8219 57.4777 51.4438 58.2455 51.4438C65.0349 51.4438 70.5586 45.9201 70.5586 39.1308C70.5586 33.544 66.0146 29 60.4298 29C56.4181 29 53.054 31.7865 52.2418 35.6178C43.421 38.2693 36.4325 45.1671 33.6667 53.9455C33.6026 53.9504 33.5356 53.9514 33.4725 53.9583C29.6008 54.3861 26.4792 57.5067 26.0514 61.3795C25.7872 63.7756 26.5501 66.1718 28.1469 67.9539C29.5712 69.5448 31.5455 70.5246 33.6529 70.7197Z" fill="#036C5F"/>
<path d="M65.9682 72.9807C64.6829 74.8663 62.5548 75.9929 60.2779 75.9929C58.001 75.9929 55.8739 74.8673 54.5876 72.9807C54.1549 72.3469 53.2914 72.1843 52.6566 72.615C52.0228 73.0477 51.8592 73.9121 52.2909 74.5459C54.0957 77.1915 57.0813 78.7715 60.2779 78.7715C63.4754 78.7715 66.461 77.1915 68.2648 74.5459C68.6975 73.9121 68.5329 73.0477 67.8991 72.615C67.2644 72.1843 66.3999 72.3459 65.9682 72.9807Z" fill="#036C5F"/>
</svg>
