<svg width="120" height="120" viewBox="0 0 120 120" fill="none" xmlns="http://www.w3.org/2000/svg">
<rect width="120" height="120" fill="#DEEEEC"/>
<path d="M50.7844 74.6042C50.7844 84.3289 58.6657 92.2103 68.3905 92.2103H81.854C87.5733 92.2103 92.2105 87.5731 92.2105 81.8537V75.6398C92.2105 59.6235 80.2642 46.6416 64.2479 46.6416" stroke="#036C5F" stroke-width="2" stroke-miterlimit="10" stroke-linecap="round" stroke-linejoin="round"/>
<path d="M64.2478 59.0695C64.2478 59.0695 59.0696 53.2879 59.0696 48.7129C59.0696 44.138 62.7798 40.4277 67.3548 40.4277C71.9298 40.4277 75.64 44.0836 75.5597 49.0029" stroke="#036C5F" stroke-width="2" stroke-miterlimit="10" stroke-linecap="round" stroke-linejoin="round"/>
<path d="M83.9251 48.713C83.9251 43.0221 81.0486 38.0148 76.6755 35.0347" stroke="#036C5F" stroke-width="2" stroke-miterlimit="10" stroke-linecap="round" stroke-linejoin="round"/>
<path d="M60.1053 28V29.3412C60.1053 31.8785 58.9195 34.2476 56.9465 35.8425C53.1897 38.8743 50.7844 43.5089 50.7844 48.713C50.7844 58.0339 50.7844 59.0695 50.7844 59.0695" stroke="#036C5F" stroke-width="2" stroke-miterlimit="10" stroke-linecap="round" stroke-linejoin="round"/>
<path d="M67.3547 28C67.3547 30.1671 65.8686 32.0675 63.7559 32.5439" stroke="#036C5F" stroke-width="2" stroke-miterlimit="10" stroke-linecap="round" stroke-linejoin="round"/>
<path d="M74.6043 28V28.2434C74.6043 30.8066 72.3077 32.7019 69.7729 32.3213" stroke="#036C5F" stroke-width="2" stroke-miterlimit="10" stroke-linecap="round" stroke-linejoin="round"/>
<path d="M28 44.5703H29.0357C34.1828 44.5703 38.3565 48.744 38.3565 53.8912V69.4259C38.3565 78.0063 45.153 84.9296 54.1243 84.9245" stroke="#036C5F" stroke-width="2" stroke-miterlimit="10" stroke-linecap="round" stroke-linejoin="round"/>
<path d="M28 36.2852H29.0357C31.107 36.2852 34.2139 36.2852 37.3209 39.3922V28" stroke="#036C5F" stroke-width="2" stroke-miterlimit="10" stroke-linecap="round" stroke-linejoin="round"/>
<path d="M45.6062 39.3921V49.7486" stroke="#036C5F" stroke-width="2" stroke-miterlimit="10" stroke-linecap="round" stroke-linejoin="round"/>
<path d="M45.6062 28V40.4278C45.6062 43.2888 47.9053 45.7666 51.0563 45.7174" stroke="#036C5F" stroke-width="2" stroke-miterlimit="10" stroke-linecap="round" stroke-linejoin="round"/>
</svg>
