<svg width="60" height="60" viewBox="0 0 60 60" fill="none" xmlns="http://www.w3.org/2000/svg">
<rect width="60" height="60" fill="#816ca9"/>
<path d="M40.3578 46.4629H20.0768C19.7947 46.4629 19.5664 46.2346 19.5664 45.9526V44.1259C19.5664 43.1723 20.3454 42.4067 21.2856 42.4067H39.1355C40.0891 42.4067 40.8547 43.1857 40.8547 44.1259V45.9526C40.8682 46.2346 40.6398 46.4629 40.3578 46.4629ZM20.5737 45.4422H39.8474V44.1259C39.8474 43.7364 39.525 43.4141 39.1355 43.4141H21.2856C20.8961 43.4141 20.5737 43.7364 20.5737 44.1259V45.4422V45.4422Z" fill="white"/>
<path d="M30.2177 36.2419C25.2079 36.2419 22.2261 33.2737 21.5949 27.6729C21.2322 24.436 20.3592 14.6581 20.3458 14.5507C20.3324 14.4164 20.3861 14.2686 20.4801 14.1612C20.5741 14.0672 20.7084 14 20.8562 14H39.5791C39.7269 14 39.8612 14.0672 39.9552 14.1612C40.0492 14.2686 40.103 14.4029 40.0895 14.5507C40.0761 14.6447 39.2031 24.436 38.8404 27.6729C38.2092 33.2737 35.2275 36.2419 30.2177 36.2419ZM21.4069 15.0208C21.5949 17.1429 22.2933 24.7852 22.6022 27.5654C23.1663 32.6558 25.7317 35.2346 30.2177 35.2346C34.7037 35.2346 37.269 32.6558 37.8331 27.5654C38.142 24.7852 38.8404 17.1429 39.0285 15.0208H21.4069V15.0208Z" fill="white"/>
<path d="M22.1051 29.3653H22.0916C18.8547 29.2578 15 27.5521 15 20.1247C15 19.8426 15.2149 19.6143 15.497 19.6143L18.5458 19.574C18.8279 19.574 19.0562 19.8023 19.0562 20.0709C19.0562 20.353 18.8279 20.5813 18.5592 20.5813L16.0208 20.6216C16.1416 25.618 18.1966 28.2102 22.1185 28.3579C22.4005 28.3714 22.6154 28.5997 22.602 28.8817C22.602 29.1638 22.3737 29.3653 22.1051 29.3653Z" fill="white"/>
<path d="M38.3303 29.3653C38.0617 29.3653 37.8333 29.1504 37.8199 28.8817C37.8065 28.5997 38.0348 28.3714 38.3034 28.3579C42.2253 28.2102 44.2803 25.618 44.4011 20.6216L41.8627 20.5947C41.5806 20.5947 41.3523 20.3664 41.3657 20.0844C41.3657 19.8023 41.594 19.5874 41.8761 19.5874L44.925 19.6277C45.207 19.6277 45.4219 19.856 45.4219 20.1381C45.4219 27.5655 41.5672 29.2712 38.3437 29.3787C38.3437 29.3653 38.3303 29.3653 38.3303 29.3653Z" fill="white"/>
<path d="M27.1815 37.8268C27.1681 39.9355 26.5368 41.9501 22.0509 42.3934C21.7688 42.4202 21.5673 42.6754 21.5942 42.944C21.6211 43.1992 21.836 43.4007 22.1046 43.4007C22.118 43.4007 22.1449 43.4007 22.1583 43.4007C27.4905 42.8634 28.1889 40.1504 28.2023 37.8268C28.2023 37.7462 28.2023 37.6656 28.2023 37.585C27.8531 37.5313 27.5173 37.4641 27.1815 37.3701C27.1815 37.5447 27.1815 37.6925 27.1815 37.8268Z" fill="white"/>
<path d="M32.2314 37.8402C32.2449 40.1504 32.9433 42.8769 38.2754 43.4141C38.2889 43.4141 38.3157 43.4141 38.3292 43.4141C38.5844 43.4141 38.8127 43.2126 38.8396 42.9575C38.8664 42.6754 38.6649 42.4336 38.3829 42.4068C33.8969 41.9501 33.2656 39.9489 33.2522 37.8402C33.2522 37.6925 33.2522 37.5447 33.2522 37.397C32.9299 37.4776 32.5807 37.5447 32.2314 37.6119C32.2314 37.679 32.2314 37.7596 32.2314 37.8402Z" fill="white"/>
</svg>
