<svg width="29" height="28" viewBox="0 0 29 28" fill="none" xmlns="http://www.w3.org/2000/svg">
<path d="M27.0899 11.9885L24.8488 10.1864C24.6746 10.046 24.5386 9.86386 24.4533 9.65693C24.3681 9.44999 24.3364 9.22492 24.3611 9.00249L24.672 6.14328C24.714 5.76361 24.6701 5.37938 24.5435 5.01896C24.417 4.65855 24.2111 4.33117 23.9411 4.06102C23.6711 3.79086 23.3438 3.58484 22.9834 3.45817C22.6231 3.33149 22.2388 3.28741 21.8592 3.32918L18.9963 3.63644C18.7739 3.66108 18.5488 3.62932 18.3419 3.54408C18.135 3.45885 17.9529 3.32288 17.8124 3.14872L16.0103 0.908906C15.7634 0.623636 15.458 0.394822 15.1149 0.237995C14.7718 0.0811682 14.3989 0 14.0216 0C13.6444 0 13.2715 0.0811682 12.9284 0.237995C12.5852 0.394822 12.2799 0.623636 12.033 0.908906L10.2309 3.14872C10.0909 3.32349 9.90885 3.45991 9.7018 3.5452C9.49475 3.63049 9.26945 3.66188 9.04697 3.63644L6.18775 3.32918C5.80809 3.28725 5.42385 3.33116 5.06344 3.45768C4.70303 3.58419 4.37565 3.79008 4.10549 4.06011C3.83534 4.33015 3.62931 4.65744 3.50264 5.0178C3.37597 5.37816 3.33189 5.76237 3.37365 6.14206L3.68457 9.00127C3.7099 9.22374 3.67846 9.449 3.59317 9.65603C3.50789 9.86307 3.37154 10.0451 3.19686 10.1852L0.953383 11.9885C0.655806 12.2275 0.415665 12.5303 0.250662 12.8745C0.0856588 13.2186 0 13.5955 0 13.9772C0 14.3588 0.0856588 14.7357 0.250662 15.0798C0.415665 15.424 0.655806 15.7268 0.953383 15.9658L3.19442 17.7679C3.36901 17.908 3.5053 18.0901 3.59057 18.2971C3.67585 18.5041 3.70735 18.7294 3.68213 18.9518L3.37122 21.811C3.32928 22.1907 3.3732 22.5749 3.49972 22.9353C3.62623 23.2958 3.83212 23.6231 4.10215 23.8933C4.37219 24.1634 4.69948 24.3695 5.05984 24.4961C5.4202 24.6228 5.80441 24.6669 6.18409 24.6251L9.04453 24.3142C9.26695 24.2895 9.49203 24.3212 9.69896 24.4064C9.90589 24.4916 10.088 24.6277 10.2284 24.8019L12.033 27.0466C12.272 27.3442 12.5748 27.5843 12.9189 27.7493C13.2631 27.9143 13.6399 28 14.0216 28C14.4033 28 14.7801 27.9143 15.1243 27.7493C15.4685 27.5843 15.7713 27.3442 16.0103 27.0466L17.8124 24.8056C17.9529 24.6314 18.135 24.4955 18.3419 24.4102C18.5488 24.325 18.7739 24.2932 18.9963 24.3179L21.8555 24.6288C22.2352 24.6707 22.6194 24.6268 22.9798 24.5003C23.3402 24.3738 23.6676 24.1679 23.9378 23.8978C24.2079 23.6278 24.4139 23.3005 24.5406 22.9402C24.6673 22.5798 24.7114 22.1956 24.6696 21.8159L24.3587 18.9555C24.3332 18.733 24.3646 18.5077 24.4499 18.3006C24.5352 18.0936 24.6716 17.9116 24.8464 17.7716L27.0874 15.9695C27.385 15.7304 27.6252 15.4277 27.7902 15.0835C27.9552 14.7393 28.0408 14.3625 28.0408 13.9808C28.0408 13.5991 27.9552 13.2223 27.7902 12.8781C27.6252 12.5339 27.385 12.2312 27.0874 11.9922L27.0899 11.9885ZM14.5093 17.7167C14.322 17.9607 14.0851 18.1621 13.8143 18.3079C13.5434 18.4536 13.2447 18.5403 12.9379 18.5622C12.6311 18.5841 12.3232 18.5407 12.0344 18.4349C11.7456 18.3291 11.4824 18.1633 11.2624 17.9483L8.28248 14.9757C8.16602 14.8633 8.07313 14.7287 8.00923 14.58C7.94533 14.4312 7.9117 14.2712 7.91029 14.1093C7.90888 13.9474 7.93973 13.7869 8.00104 13.637C8.06235 13.4872 8.15288 13.351 8.26736 13.2366C8.38184 13.1221 8.51798 13.0315 8.66783 12.9702C8.81767 12.9089 8.97822 12.8781 9.14012 12.8795C9.30201 12.8809 9.46201 12.9145 9.61077 12.9784C9.75952 13.0423 9.89406 13.1352 10.0065 13.2517L12.7511 15.9963L17.5173 9.64261C17.7113 9.38391 18.0002 9.21288 18.3203 9.16715C18.4788 9.14451 18.6402 9.15331 18.7953 9.19305C18.9504 9.23278 19.0962 9.30268 19.2243 9.39875C19.3524 9.49483 19.4603 9.61519 19.5419 9.75296C19.6235 9.89074 19.6771 10.0432 19.6998 10.2017C19.7224 10.3603 19.7136 10.5217 19.6739 10.6768C19.6341 10.8319 19.5642 10.9777 19.4682 11.1057L14.5093 17.7167Z" fill="#036C5F"/>
</svg>
