<svg width="120" height="120" viewBox="0 0 120 120" fill="none" xmlns="http://www.w3.org/2000/svg">
<rect width="120" height="120" fill="#DEEEEC"/>
<path d="M98.0473 60.0967C98.0473 60.0967 86.8631 86.1934 59.5237 86.1934C32.1843 86.1934 21 60.0967 21 60.0967C21 60.0967 32.1843 34 59.5237 34C86.8631 34 98.0473 60.0967 98.0473 60.0967Z" stroke="#036C5F" stroke-width="2" stroke-miterlimit="10" stroke-linecap="round" stroke-linejoin="round"/>
<path d="M59.5237 86.1934C45.1115 86.1934 33.427 74.5089 33.427 60.0967" stroke="#036C5F" stroke-width="2" stroke-miterlimit="10" stroke-linecap="round" stroke-linejoin="round"/>
<path d="M59.5237 34C73.9359 34 85.6204 45.6845 85.6204 60.0967" stroke="#036C5F" stroke-width="2" stroke-miterlimit="10" stroke-linecap="round" stroke-linejoin="round"/>
<path d="M56.3113 45.5445L56.3082 45.5351C57.3645 45.3021 58.4426 45.1841 59.5237 45.1841C68.5985 45.1841 75.8901 53.4667 74.1876 62.8211C73.094 68.8389 68.2661 73.6667 62.2483 74.7603C52.8939 76.4628 44.6113 69.1713 44.6113 60.0965C44.6113 59.1178 44.7076 58.1423 44.9003 57.1823L44.9096 57.1854C51.7941 58.5555 57.8243 52.4011 56.3113 45.5445Z" stroke="#036C5F" stroke-width="2" stroke-miterlimit="10" stroke-linecap="round" stroke-linejoin="round"/>
</svg>
