<svg width="120" height="120" viewBox="0 0 120 120" fill="none" xmlns="http://www.w3.org/2000/svg">
<rect width="120" height="120" fill="#DEEEEC"/>
<path d="M34.4537 27C44.9634 37.4845 50.6629 37.0383 56.2292 37.6571C60.5736 38.1377 62.4104 40.1242 63.0307 40.7403C66.1027 43.8049 66.1027 48.7762 63.0307 51.8408C61.7902 53.0784 60.2355 53.8087 58.6223 54.045C58.1751 54.1114 57.5682 54.1061 56.9346 54.0689C55.3454 53.9733 54.041 55.2746 54.1368 56.86C54.1741 57.4894 54.1794 58.0949 54.1128 58.541C53.8733 60.1503 53.1439 61.7012 51.9007 62.9387C48.8287 66.0033 43.8454 66.0033 40.7734 62.9387C40.1558 62.3226 38.1646 60.4876 37.6828 56.1536C37.0625 50.606 37.5097 44.9202 27 34.4358" stroke="#036C5F" stroke-width="2" stroke-miterlimit="10" stroke-linecap="round" stroke-linejoin="round"/>
<path d="M85.565 92.8598C75.0553 82.3753 69.3559 82.8214 63.7896 82.2027C59.4451 81.722 57.6083 79.7356 56.9881 79.1195C53.9161 76.0549 53.9161 71.0835 56.9881 68.0189C58.2286 66.7814 59.7832 66.0511 61.3964 65.8147C61.8436 65.7484 62.4506 65.7537 63.0841 65.7908C64.6734 65.8864 65.9778 64.5852 65.8819 62.9998C65.8447 62.3704 65.8393 61.7649 65.9059 61.3187C66.1455 59.7094 66.8749 58.1585 68.1181 56.921C71.19 53.8564 76.1734 53.8564 79.2454 56.921C79.863 57.5371 81.8542 59.3722 82.336 63.7062C82.9536 69.2564 82.5064 74.9448 93.0188 85.4293" stroke="#036C5F" stroke-width="2" stroke-miterlimit="10" stroke-linecap="round" stroke-linejoin="round"/>
<path d="M86.9837 32.9302L77.4004 42.4905" stroke="#036C5F" stroke-width="2" stroke-miterlimit="10" stroke-linecap="round" stroke-linejoin="round"/>
<path d="M70.6577 27V39.7471" stroke="#036C5F" stroke-width="2" stroke-miterlimit="10" stroke-linecap="round" stroke-linejoin="round"/>
<path d="M93.0187 49.3071H80.241" stroke="#036C5F" stroke-width="2" stroke-miterlimit="10" stroke-linecap="round" stroke-linejoin="round"/>
</svg>
