<svg width="60" height="60" viewBox="0 0 60 60" fill="none" xmlns="http://www.w3.org/2000/svg">
<rect width="60" height="60" fill="#816ca9"/>
<path d="M29.5648 46.1297C38.7133 46.1297 46.1297 38.7133 46.1297 29.5648C46.1297 20.4163 38.7133 13 29.5648 13C20.4163 13 13 20.4163 13 29.5648C13 38.7133 20.4163 46.1297 29.5648 46.1297Z" stroke="white" stroke-width="1.3" stroke-miterlimit="10" stroke-linecap="round" stroke-linejoin="round"/>
<path d="M29.565 31.1678C30.4503 31.1678 31.168 30.4501 31.168 29.5647C31.168 28.6794 30.4503 27.9617 29.565 27.9617C28.6796 27.9617 27.9619 28.6794 27.9619 29.5647C27.9619 30.4501 28.6796 31.1678 29.565 31.1678Z" stroke="white" stroke-width="1.3" stroke-miterlimit="10" stroke-linecap="round" stroke-linejoin="round"/>
<path d="M24.2217 24.2212L27.9621 27.9616" stroke="white" stroke-width="1.3" stroke-miterlimit="10" stroke-linecap="round" stroke-linejoin="round"/>
<path d="M38.1145 21.0151L31.168 27.9617" stroke="white" stroke-width="1.3" stroke-miterlimit="10" stroke-linecap="round" stroke-linejoin="round"/>
<path d="M29.5645 17.2749V19.4123" stroke="white" stroke-width="1.3" stroke-miterlimit="10" stroke-linecap="round" stroke-linejoin="round"/>
<path d="M29.5645 39.7175V41.8549" stroke="white" stroke-width="1.3" stroke-miterlimit="10" stroke-linecap="round" stroke-linejoin="round"/>
<path d="M39.7168 29.5649H41.8542" stroke="white" stroke-width="1.3" stroke-miterlimit="10" stroke-linecap="round" stroke-linejoin="round"/>
<path d="M17.2744 29.5649H19.4118" stroke="white" stroke-width="1.3" stroke-miterlimit="10" stroke-linecap="round" stroke-linejoin="round"/>
</svg>
