<svg width="120" height="120" viewBox="0 0 120 120" fill="none" xmlns="http://www.w3.org/2000/svg">
<rect width="120" height="120" fill="#DEEEEC"/>
<path d="M60.6329 44.6442C62.7163 43.7321 65.5173 43.0191 69.9805 43.1441C76.4483 43.3201 81.7078 46.3156 85.0135 51.2973C85.8932 52.3112 92.9629 65.1775 83.6616 79.3725C81.5087 82.8263 79.1984 86.0626 76.3604 88.7896C74.3001 90.7804 72.3741 93.3592 69.6703 94.1926C66.3599 95.2204 63.17 92.7943 59.8273 92.7943C59.7439 92.7943 59.656 92.7943 59.5726 92.7943C56.2438 92.7943 53.0492 95.2157 49.7343 94.1926C47.0258 93.3638 45.1137 90.7804 43.0488 88.7896C40.2107 86.0626 37.9051 82.8263 35.7476 79.3725C26.4509 65.1821 33.5206 52.3158 34.3957 51.2973C37.7013 46.3156 42.9655 43.3201 49.4287 43.1441" stroke="#036C5F" stroke-width="3" stroke-miterlimit="10" stroke-linecap="round" stroke-linejoin="round"/>
<path d="M53.2251 52.0522C53.2251 52.0522 59.5541 55.4505 66.1886 52.0522" stroke="#036C5F" stroke-width="3" stroke-miterlimit="10" stroke-linecap="round" stroke-linejoin="round"/>
<path d="M54.7251 33.5142C60.6513 20.7452 75.4482 26.1251 75.4482 26.1251C75.4482 26.1251 72.5684 30.8567 68.0405 35.3847C66.1885 37.2366 62.869 38.2969 57.7947 37.82" stroke="#036C5F" stroke-width="3" stroke-miterlimit="10" stroke-linecap="round" stroke-linejoin="round"/>
<path d="M60.6329 44.6445C60.6329 44.6445 59.9061 38.3248 51.3733 29.8291" stroke="#036C5F" stroke-width="3" stroke-miterlimit="10" stroke-linecap="round" stroke-linejoin="round"/>
</svg>
