<?xml version="1.0" encoding="UTF-8"?>
<svg id="Capa_1" data-name="Capa 1" xmlns="http://www.w3.org/2000/svg" viewBox="0 0 1650 850">
  <defs>
    <style>
      .cls-1 {
        fill: #fff;
      }
    </style>
  </defs>
  <g>
    <path class="cls-1" d="m253.57,806.99c0-10.21,7.76-18.06,17.91-18.06,4.95,0,8.96,1.85,12.06,4.8.35.35.4.7.05,1.1l-2.55,2.75c-.3.35-.65.35-1.05.05-2.3-2-5.05-3.2-8.46-3.2-7.01,0-12.31,5.3-12.31,12.56s5.3,12.51,12.31,12.51c3.4,0,6.15-1.2,8.46-3.2.4-.35.75-.3,1.05,0l2.55,2.8c.4.35.3.7-.05,1.05-3.1,3-7.11,4.85-12.06,4.85-10.16,0-17.91-7.81-17.91-18.01Z"/>
    <path class="cls-1" d="m300.3,823.6v-33.53c0-.45.25-.75.7-.75h4.15c.45,0,.75.3.75.75v33.53c0,.45-.3.75-.75.75h-4.15c-.45,0-.7-.3-.7-.75Z"/>
    <path class="cls-1" d="m341.02,823.85l-7.86-12.21h-3.95v11.96c0,.45-.3.75-.75.75h-4.15c-.45,0-.7-.3-.7-.75v-33.53c0-.45.25-.75.7-.75h10.11c7.96,0,11.96,4.6,11.96,11.16,0,5.25-2.55,9.21-7.66,10.61l8.11,12.36c.35.55.1.9-.5.9h-4.4c-.4,0-.7-.15-.9-.5Zm-6.86-17.21c3.7,0,6.81-1.45,6.81-6.15s-3.1-6.15-6.81-6.15h-4.95v12.31h4.95Z"/>
    <path class="cls-1" d="m362.43,811.84v-21.77c0-.45.25-.75.7-.75h4.15c.45,0,.75.3.75.75v21.52c0,5.3,2.7,7.91,6.91,7.91s6.91-2.6,6.91-7.91v-21.52c0-.45.3-.75.75-.75h4.15c.45,0,.75.3.75.75v21.77c0,8.61-5.15,13.16-12.56,13.16s-12.51-4.55-12.51-13.16Z"/>
    <path class="cls-1" d="m402.75,821.4c-.3-.4-.3-.8,0-1.15l2.2-2.9c.25-.3.65-.35.95-.05,1.2,1,2.6,2.2,5.25,2.2,3.55,0,5.8-2.2,5.8-7.41v-22.02c0-.45.25-.75.7-.75h4.15c.45,0,.75.3.75.75v21.92c0,8.71-4.65,13.01-11.26,13.01-4.2,0-6.91-1.75-8.56-3.6Z"/>
    <path class="cls-1" d="m437.32,823.5l11.91-33.58c.15-.4.5-.6.9-.6h4.55c.4,0,.8.2.95.6l11.91,33.58c.2.5-.05.85-.6.85h-4.35c-.4,0-.7-.15-.85-.6l-2.05-6.11h-14.51l-2.1,6.11c-.15.45-.4.6-.85.6h-4.3c-.55,0-.8-.35-.6-.85Zm20.67-10.86l-5.55-16.36-5.55,16.36h11.11Z"/>
    <path class="cls-1" d="m503.11,823.85l-14.21-25.87v25.62c0,.45-.3.75-.75.75h-4.15c-.45,0-.7-.3-.7-.75v-33.53c0-.45.25-.75.7-.75h5.1c.4,0,.7.15.9.5l14.26,25.97v-25.72c0-.45.25-.75.7-.75h4.15c.45,0,.75.3.75.75v33.53c0,.45-.3.75-.75.75h-5.1c-.4,0-.7-.15-.9-.5Z"/>
    <path class="cls-1" d="m526.52,806.99c0-10.16,7.96-18.06,17.96-18.06s17.96,7.91,17.96,18.06-7.96,18.01-17.96,18.01-17.96-7.91-17.96-18.01Zm17.96,12.51c7.01,0,12.26-5.35,12.26-12.51s-5.25-12.56-12.26-12.56-12.31,5.35-12.31,12.56,5.3,12.51,12.31,12.51Z"/>
    <path class="cls-1" d="m599.01,823.6v-33.53c0-.45.25-.75.7-.75h9.11c11.91,0,17.81,7.61,17.81,17.51s-5.9,17.51-17.81,17.51h-9.11c-.45,0-.7-.3-.7-.75Zm9.71-4.25c8.31,0,12.26-4.6,12.26-12.51s-3.95-12.51-12.26-12.51h-4.1v25.02h4.1Z"/>
    <path class="cls-1" d="m643.09,823.6v-33.53c0-.45.25-.75.7-.75h17.36c.45,0,.7.3.7.75v3.5c0,.45-.25.75-.7.75h-12.46v9.61h11.76c.45,0,.75.3.75.75v3.55c0,.45-.3.7-.75.7h-11.76v10.41h12.46c.45,0,.75.3.75.75v3.5c0,.45-.3.75-.75.75h-17.36c-.45,0-.7-.3-.7-.75Z"/>
    <path class="cls-1" d="m698.92,823.85l-14.21-25.87v25.62c0,.45-.3.75-.75.75h-4.15c-.45,0-.7-.3-.7-.75v-33.53c0-.45.25-.75.7-.75h5.1c.4,0,.7.15.9.5l14.26,25.97v-25.72c0-.45.25-.75.7-.75h4.15c.45,0,.75.3.75.75v33.53c0,.45-.3.75-.75.75h-5.1c-.4,0-.7-.15-.9-.5Z"/>
    <path class="cls-1" d="m730.19,823.6v-29.27h-7.16c-.45,0-.7-.3-.7-.75v-3.5c0-.45.25-.75.7-.75h19.87c.45,0,.75.3.75.75v3.5c0,.45-.3.75-.75.75h-7.11v29.27c0,.45-.3.75-.75.75h-4.15c-.45,0-.7-.3-.7-.75Z"/>
    <path class="cls-1" d="m760.35,823.6v-33.53c0-.45.25-.75.7-.75h4.15c.45,0,.75.3.75.75v33.53c0,.45-.3.75-.75.75h-4.15c-.45,0-.7-.3-.7-.75Z"/>
    <path class="cls-1" d="m782.51,819.6c-.25-.35-.25-.7.1-1.1l2.1-2.4c.4-.45.8-.4,1.15-.05,2.05,2.35,4.2,3.75,7.51,3.75,3.65,0,5.9-1.75,5.9-4.8s-2.2-4.2-5.15-5.6l-4.25-2c-3.7-1.75-6.66-4.4-6.66-9.11,0-5.9,4.6-9.36,10.31-9.36,4.1,0,7.31,1.65,9.86,4.55.4.4.35.75,0,1.15l-2.05,2.45c-.35.45-.75.45-1.15.1-2.05-2.05-3.95-3.1-6.45-3.1-2.95,0-5.05,1.5-5.05,4.2,0,2.3,1.4,3.45,4.3,4.85l3.85,1.8c3.95,1.9,7.91,4.3,7.91,10.06,0,6.55-5.2,9.96-11.31,9.96-5.25,0-8.91-2.5-10.91-5.35Z"/>
    <path class="cls-1" d="m826.44,823.6v-29.27h-7.16c-.45,0-.7-.3-.7-.75v-3.5c0-.45.25-.75.7-.75h19.87c.45,0,.75.3.75.75v3.5c0,.45-.3.75-.75.75h-7.11v29.27c0,.45-.3.75-.75.75h-4.15c-.45,0-.7-.3-.7-.75Z"/>
    <path class="cls-1" d="m849.4,823.5l11.91-33.58c.15-.4.5-.6.9-.6h4.55c.4,0,.8.2.95.6l11.91,33.58c.2.5-.05.85-.6.85h-4.35c-.4,0-.7-.15-.85-.6l-2.05-6.11h-14.51l-2.1,6.11c-.15.45-.4.6-.85.6h-4.3c-.55,0-.8-.35-.6-.85Zm20.67-10.86l-5.55-16.36-5.55,16.36h11.11Z"/>
    <path class="cls-1" d="m915.49,823.6v-33.53c0-.45.25-.75.7-.75h17.36c.45,0,.7.3.7.75v3.5c0,.45-.25.75-.7.75h-12.46v9.61h11.76c.45,0,.75.3.75.75v3.55c0,.45-.3.7-.75.7h-11.76v10.41h12.46c.45,0,.75.3.75.75v3.5c0,.45-.3.75-.75.75h-17.36c-.45,0-.7-.3-.7-.75Z"/>
    <path class="cls-1" d="m971.32,823.85l-14.21-25.87v25.62c0,.45-.3.75-.75.75h-4.15c-.45,0-.7-.3-.7-.75v-33.53c0-.45.25-.75.7-.75h5.1c.4,0,.7.15.9.5l14.26,25.97v-25.72c0-.45.25-.75.7-.75h4.15c.45,0,.75.3.75.75v33.53c0,.45-.3.75-.75.75h-5.1c-.4,0-.7-.15-.9-.5Z"/>
    <path class="cls-1" d="m995.73,823.6v-33.53c0-.45.25-.75.7-.75h9.11c11.91,0,17.81,7.61,17.81,17.51s-5.9,17.51-17.81,17.51h-9.11c-.45,0-.7-.3-.7-.75Zm9.71-4.25c8.31,0,12.26-4.6,12.26-12.51s-3.95-12.51-12.26-12.51h-4.1v25.02h4.1Z"/>
    <path class="cls-1" d="m1038.81,806.99c0-10.16,7.96-18.06,17.96-18.06s17.96,7.91,17.96,18.06-7.96,18.01-17.96,18.01-17.96-7.91-17.96-18.01Zm17.96,12.51c7.01,0,12.26-5.35,12.26-12.51s-5.25-12.56-12.26-12.56-12.31,5.35-12.31,12.56,5.3,12.51,12.31,12.51Z"/>
    <path class="cls-1" d="m1091.44,823.6v-33.53c0-.45.25-.75.7-.75h9.11c11.91,0,17.81,7.61,17.81,17.51s-5.9,17.51-17.81,17.51h-9.11c-.45,0-.7-.3-.7-.75Zm9.71-4.25c8.31,0,12.26-4.6,12.26-12.51s-3.95-12.51-12.26-12.51h-4.1v25.02h4.1Z"/>
    <path class="cls-1" d="m1134.51,806.99c0-10.16,7.96-18.06,17.96-18.06s17.96,7.91,17.96,18.06-7.96,18.01-17.96,18.01-17.96-7.91-17.96-18.01Zm17.96,12.51c7.01,0,12.26-5.35,12.26-12.51s-5.25-12.56-12.26-12.56-12.31,5.35-12.31,12.56,5.3,12.51,12.31,12.51Z"/>
    <path class="cls-1" d="m1206.95,823.85l-14.21-25.87v25.62c0,.45-.3.75-.75.75h-4.15c-.45,0-.7-.3-.7-.75v-33.53c0-.45.25-.75.7-.75h5.1c.4,0,.7.15.9.5l14.26,25.97v-25.72c0-.45.25-.75.7-.75h4.15c.45,0,.75.3.75.75v33.53c0,.45-.3.75-.75.75h-5.1c-.4,0-.7-.15-.9-.5Z"/>
    <path class="cls-1" d="m1230.36,806.99c0-10.21,7.76-18.06,17.91-18.06,4.95,0,8.96,1.85,12.06,4.8.35.35.4.7.05,1.1l-2.55,2.75c-.3.35-.65.35-1.05.05-2.3-2-5.05-3.2-8.46-3.2-7.01,0-12.31,5.3-12.31,12.56s5.3,12.51,12.31,12.51c3.4,0,6.15-1.2,8.46-3.2.4-.35.75-.3,1.05,0l2.55,2.8c.4.35.3.7-.05,1.05-3.1,3-7.11,4.85-12.06,4.85-10.16,0-17.91-7.81-17.91-18.01Z"/>
    <path class="cls-1" d="m1277.09,823.6v-33.53c0-.45.25-.75.7-.75h4.15c.45,0,.75.3.75.75v33.53c0,.45-.3.75-.75.75h-4.15c-.45,0-.7-.3-.7-.75Z"/>
    <path class="cls-1" d="m1299.25,819.6c-.25-.35-.25-.7.1-1.1l2.1-2.4c.4-.45.8-.4,1.15-.05,2.05,2.35,4.2,3.75,7.51,3.75,3.65,0,5.9-1.75,5.9-4.8s-2.2-4.2-5.15-5.6l-4.25-2c-3.7-1.75-6.66-4.4-6.66-9.11,0-5.9,4.6-9.36,10.31-9.36,4.1,0,7.31,1.65,9.86,4.55.4.4.35.75,0,1.15l-2.05,2.45c-.35.45-.75.45-1.15.1-2.05-2.05-3.95-3.1-6.45-3.1-2.95,0-5.05,1.5-5.05,4.2,0,2.3,1.4,3.45,4.3,4.85l3.85,1.8c3.95,1.9,7.91,4.3,7.91,10.06,0,6.55-5.2,9.96-11.31,9.96-5.25,0-8.91-2.5-10.91-5.35Z"/>
    <path class="cls-1" d="m1343.18,823.6v-29.27h-7.16c-.45,0-.7-.3-.7-.75v-3.5c0-.45.25-.75.7-.75h19.87c.45,0,.75.3.75.75v3.5c0,.45-.3.75-.75.75h-7.11v29.27c0,.45-.3.75-.75.75h-4.15c-.45,0-.7-.3-.7-.75Z"/>
    <path class="cls-1" d="m1366.14,823.5l11.91-33.58c.15-.4.5-.6.9-.6h4.55c.4,0,.8.2.95.6l11.91,33.58c.2.5-.05.85-.6.85h-4.35c-.4,0-.7-.15-.85-.6l-2.05-6.11h-14.51l-2.1,6.11c-.15.45-.4.6-.85.6h-4.3c-.55,0-.8-.35-.6-.85Zm20.67-10.86l-5.55-16.36-5.55,16.36h11.11Z"/>
  </g>
  <g>
    <path class="cls-1" d="m28.35,714.9v-85.96c0-4.11-1.37-8.23-3.35-10.36h42.98c32.62,0,57,23.01,57,53.35s-24.39,53.35-57,53.35H25c1.98-2.13,3.35-6.25,3.35-10.36Zm13.57-93.28v100.6h24.08c26.98,0,44.81-19.97,44.81-50.3s-17.83-50.3-44.81-50.3h-24.08Z"/>
    <path class="cls-1" d="m146.01,714.9v-85.96c0-4.11-1.37-8.23-3.35-10.36h45.27c22.1,0,38.72,12.96,38.72,30.33,0,15.7-13.41,27.89-32.01,30.18,7.32,1.98,13.26,5.79,16.31,11.28l13.72,23.32c2.74,5.03,7.32,9.6,11.28,11.58h-15.24c-4.27-2.29-8.08-5.94-10.52-10.21l-15.39-26.98c-1.98-3.51-5.33-6.71-9.3-8.54h-25.91v35.36c0,4.11,1.37,8.23,3.35,10.36h-20.27c1.98-2.13,3.35-6.25,3.35-10.36Zm13.57-93.28v54.87h25.76c16.31,0,27.13-10.82,27.13-27.44s-10.82-27.44-27.13-27.44h-25.76Z"/>
    <path class="cls-1" d="m249.5,708.04l39.33-89.47h6.1l40.7,93.28c2.74,6.1,6.25,11.28,8.99,13.41h-24.23c2.9-2.74,3.2-8.69.46-14.79l-7.32-16.77h-53.19l-6.4,14.63c-3.05,6.86-2.29,13.41,1.98,16.92h-18.29c3.66-2.13,8.08-8.38,11.89-17.22Zm62.65-17.37l-25.15-58.23-25.3,58.23h50.45Z"/>
    <path class="cls-1" d="m356.18,716.73c0-5.33,4.12-9.6,9.45-9.6s9.45,4.27,9.45,9.6-4.11,9.3-9.45,9.3-9.45-3.96-9.45-9.3Z"/>
    <path class="cls-1" d="m437.72,714.9v-85.96c0-4.11-1.37-8.23-3.35-10.36h20.27c-1.98,2.13-3.35,6.25-3.35,10.36v40.7h62.95v-40.7c0-4.11-1.37-8.23-3.35-10.36h20.27c-1.98,2.13-3.35,6.25-3.35,10.36v85.96c0,4.11,1.37,8.23,3.35,10.36h-20.27c1.98-2.13,3.35-6.25,3.35-10.36v-42.22h-62.95v42.22c0,4.11,1.37,8.23,3.35,10.36h-20.27c1.98-2.13,3.35-6.25,3.35-10.36Z"/>
    <path class="cls-1" d="m557.06,714.9v-85.96c0-4.11-1.37-8.23-3.35-10.36h76.97v18.75c-4.27-9.45-13.11-15.7-21.8-15.7h-38.26v48.01h31.09c6.71,0,13.41-3.51,16.77-8.84v20.73c-3.35-5.34-10.06-8.84-16.77-8.84h-31.09v49.54h39.78c8.69,0,17.53-6.25,21.8-15.85v18.9h-78.5c1.98-2.13,3.35-6.25,3.35-10.36Z"/>
    <path class="cls-1" d="m683.41,714.9v-35.36l-30.48-45.88c-4.57-6.86-9.75-12.8-12.96-15.09h26.52c-3.05,2.9-2.74,8.69.92,14.18l28.2,42.52,29.11-43.9c3.05-4.88,3.35-9.91.3-12.8h16.92c-4.27,2.44-9.6,7.77-13.87,14.18l-31.09,46.79v35.36c0,4.11,1.37,8.23,3.35,10.36h-20.27c1.98-2.13,3.35-6.25,3.35-10.36Z"/>
    <path class="cls-1" d="m754.43,714.9v-85.96c0-4.11-1.37-8.23-3.35-10.36h42.98c32.62,0,57.01,23.01,57.01,53.35s-24.39,53.35-57.01,53.35h-42.98c1.98-2.13,3.35-6.25,3.35-10.36Zm13.57-93.28v100.6h24.08c26.98,0,44.81-19.97,44.81-50.3s-17.83-50.3-44.81-50.3h-24.08Z"/>
    <path class="cls-1" d="m872.09,714.9v-85.96c0-4.11-1.37-8.23-3.35-10.36h20.27c-1.98,2.13-3.35,6.25-3.35,10.36v85.96c0,4.11,1.37,8.23,3.35,10.36h-20.27c1.98-2.13,3.35-6.25,3.35-10.36Z"/>
    <path class="cls-1" d="m947.53,671.92c0-30.79,23.78-54.87,56.24-54.87,23.32,0,41.46,12.5,41.46,26.37,0,6.1-3.66,10.36-9.3,10.36s-9.75-4.11-9.75-9.45c5.79,0,9.75-3.05,9.75-7.32,0-7.77-12.19-16.31-29.42-16.31-26.83,0-44.81,20.12-44.81,51.06s18.14,51.36,44.97,51.36c16.46,0,29.72-7.62,36.43-19.51l3.35,2.13c-6.55,12.04-22.71,21.03-42.52,21.03-31.7,0-56.4-23.32-56.4-54.87Z"/>
    <path class="cls-1" d="m1057.42,671.92c0-31.25,23.93-54.87,55.63-54.87s55.63,23.63,55.63,54.87-23.93,54.87-55.63,54.87-55.63-23.63-55.63-54.87Zm97.09,0c0-31.25-16.46-51.82-41.46-51.82s-41.46,20.58-41.46,51.82,16.46,51.82,41.46,51.82,41.46-20.58,41.46-51.82Z"/>
    <path class="cls-1" d="m1189.71,714.9v-85.96c0-4.11-1.37-8.23-3.35-10.36h45.27c22.1,0,38.72,12.96,38.72,30.33,0,15.7-13.41,27.89-32.01,30.18,7.32,1.98,13.26,5.79,16.31,11.28l13.72,23.32c2.74,5.03,7.32,9.6,11.28,11.58h-15.24c-4.27-2.29-8.08-5.94-10.52-10.21l-15.39-26.98c-1.98-3.51-5.33-6.71-9.3-8.54h-25.91v35.36c0,4.11,1.37,8.23,3.35,10.36h-20.27c1.98-2.13,3.35-6.25,3.35-10.36Zm13.57-93.28v54.87h25.76c16.31,0,27.13-10.82,27.13-27.44s-10.82-27.44-27.13-27.44h-25.76Z"/>
    <path class="cls-1" d="m1293.2,708.04l39.33-89.47h6.1l40.7,93.28c2.74,6.1,6.25,11.28,8.99,13.41h-24.23c2.9-2.74,3.2-8.69.46-14.79l-7.32-16.77h-53.19l-6.4,14.63c-3.05,6.86-2.29,13.41,1.98,16.92h-18.29c3.66-2.13,8.08-8.38,11.89-17.22Zm62.64-17.37l-25.15-58.23-25.3,58.23h50.45Z"/>
    <path class="cls-1" d="m1404.3,714.9v-85.96c0-4.11-1.37-8.23-3.35-10.36h42.98c32.62,0,57,23.01,57,53.35s-24.39,53.35-57,53.35h-42.98c1.98-2.13,3.35-6.25,3.35-10.36Zm13.57-93.28v100.6h24.08c26.98,0,44.81-19.97,44.81-50.3s-17.83-50.3-44.81-50.3h-24.08Z"/>
    <path class="cls-1" d="m1513.73,671.92c0-31.25,23.93-54.87,55.63-54.87s55.63,23.63,55.63,54.87-23.93,54.87-55.63,54.87-55.63-23.63-55.63-54.87Zm97.09,0c0-31.25-16.46-51.82-41.46-51.82s-41.46,20.58-41.46,51.82,16.46,51.82,41.46,51.82,41.46-20.58,41.46-51.82Z"/>
  </g>
  <g>
    <path class="cls-1" d="m1040.33,189.51c-5.71,0-11.54,3.64-14.62,9.31-15.75,34.01-30.95,70.07-46.43,110.17-22.14.69-48.58,1.75-79.78,4.08,28.71-62.71,45.09-116.54,45.09-148.42,0-13.1-2.58-22.47-7.89-28.66-.08-.09-.16-.18-.25-.26-11.16-10.96-27.29-16.52-47.92-16.52-72.8,0-189.98,74.43-189.98,120.66,0,5.25,1.34,9.7,4.11,13.62,1.27,1.8,3.71,2.31,5.6,1.19l.98-.59c1.02-.61,1.73-1.62,1.97-2.78.24-1.16-.03-2.37-.73-3.33-1.46-1.98-2.13-4.37-2.13-7.52,0-34.45,106.82-105.37,172.92-105.37,15.27,0,26.53,3.97,33.45,11.8,2.37,3.2,3.58,8.44,3.58,15.6,0,26.9-17.37,78.55-51.63,153.54-101.35,10.01-101.34,21.44-101.34,26.34,0,.77.05,1.69.65,2.88.77,1.53,2.42,2.45,4.11,2.3l2.36-.2c1.42-.12,2.64-.94,3.31-2.11,5.22-2.99,33.26-7.29,83.43-12.8-21.24,45.39-44.4,90.91-63.17,127.84-15.14,29.77-27.1,53.29-32.74,66.31-.58,1.46-.88,2.95-.88,4.3,0,4.26,2.85,7.35,6.76,7.35s8.26-3.42,11.77-9.5c4.78-8.98,13.14-23.05,23.72-40.87,23.86-40.17,59.76-100.62,87.48-158.84,30.7-3.1,57.91-5.14,82.06-6.92-18.31,48.84-27.6,82.2-27.6,99.19,0,1.01,0,2.14.21,3.38.85,29.37,20.85,31.66,26.98,31.66,2.74,0,4.81-.44,5.04-.49,1.11-.25,2.07-.93,2.67-1.89.6-.97.78-2.13.51-3.23l-.59-2.36c-.53-2.15-2.7-3.52-4.87-3.12,0,0-.69.12-1.77.12-5.1,0-13.72-2.51-14.24-19.29.95-15.11,14.67-45.22,29.19-77.09,4.32-9.47,8.77-19.25,13.03-28.93,10.99-.78,13.8-.97,14.05-.99,1.18,0,2.31-.5,3.11-1.37.8-.87,1.19-2.04,1.09-3.22l-.2-2.16c-.13-1.45-1.01-2.73-2.31-3.38-1.38-.69-3.63-1.08-10.25-1.03,17.11-38.37,34.67-73.6,41.49-87.29,2.89-5.8,3.24-6.5,3.28-7.32.39-2.62.59-5.11.59-7.23,0-12.23-6.84-16.58-13.25-16.58Z"/>
    <path class="cls-1" d="m658.88,158.58c38.62-19.65,87.9,19.31,115.54-15.24-29.78,16.26-59.65-12.84-100.3-12.19-73.44,1.16-98.43,94.1-59.34,169.71,11.47,22.18,20.75,40.86,28.29,57.22-.45-47.37-25.86-84.66-24.84-130.9.6-27.47,11.63-53.83,40.65-68.59Z"/>
    <path class="cls-1" d="m775.71,384.63c23.33,2.36,22.74,33.63,24.66,33.41,1.93-.21,2.94-13.55,2.7-18.46-.24-4.92-1.72-13.31-6.34-23.37-4.62-10.05-31.45-24.06-50.88.73-19.79,25.25-24.74,72.52-32.93,91.63-5.89,13.73-18.63,8.5-30.04.21-11.4-8.3-22.81-41.36-25.53-41.36s4.93,28.53,16.52,42.55c11.6,14.02,50.81,34.49,63.79-7.02,13.45-43.05,16.89-77.63,38.05-78.32Z"/>
  </g>
  <path class="cls-1" d="m1040.28,33.11l-6.08-4.14c-10.45-7.11-24.68-4.41-31.79,6.03l-14.7,21.58c-4.28,6.28-4.98,13.93-2.61,20.58-56.57,57.66-161.8,95.34-216.24,143.47-52.68,46.57-77.88,114.53-62.3,172.55-.31-59.55,30.75-117.57,87.49-163.39,36.29-29.3,86.18-49.1,130.19-77.88,36.91-20.96,63.13-38.94,81.72-56.44,9.35,2.89,19.87-.48,25.66-8.99l14.7-21.58c7.11-10.45,4.41-24.68-6.03-31.79Z"/>
</svg>