<svg width="686" height="661" viewBox="0 0 686 661" fill="none" xmlns="http://www.w3.org/2000/svg">
<mask id="mask0" mask-type="alpha" maskUnits="userSpaceOnUse" x="0" y="0" width="686" height="661">
<rect width="686" height="661" fill="#C4C4C4"/>
</mask>
<g mask="url(#mask0)">
<path d="M189.633 390.761C161.747 386.224 132.893 381.56 106.205 366.349C60.1548 340.057 29.2305 329.866 -21.8163 343.067C-67.5054 354.886 -113.86 375.549 -159.686 404.527C-200.976 430.631 -240.536 462.566 -277.271 499.493C-284.17 506.393 -292.099 513.575 -300.488 521.149C-328.632 546.585 -360.57 575.386 -368.587 608.976C-375.036 635.917 -367.011 671.026 -359.955 702.059C-357.598 712.418 -355.396 722.145 -353.802 731.042C-353.026 735.425 -351.969 739.62 -350.676 743.641C-334.274 794.634 -277.869 816.132 -223.219 837.025C-190.922 849.359 -160.41 860.999 -137.648 878.252C-79.1345 922.526 -54.4894 983.837 -28.3554 1048.72C-20.8172 1067.45 -13.0217 1086.84 -4.36933 1105.7C13.2797 1144.2 31.7964 1172.82 52.3079 1193.23C80.4312 1221.24 112.058 1233.01 146.37 1228.27C169.612 1225.03 187.289 1214.96 198.797 1198.29C212.571 1178.35 217.911 1149.48 215.069 1110.02C212.689 1076.85 205.072 1043.31 198.956 1016.41C197.468 1009.97 196.079 1003.83 194.918 998.404C175.785 908.6 177.884 850.243 242.356 780.551C254.295 767.642 266.235 753.221 277.832 739.252C298.454 714.383 319.776 688.655 343.196 668.542C352.262 660.799 362.727 653.922 372.912 647.233C396.385 631.833 420.671 615.927 430.234 587.448C438.843 561.762 440.364 535.869 434.587 514.421C427.918 489.748 411.699 471.609 387.741 462.006C368.139 454.122 348.237 445.456 329.052 437.048C304.49 426.323 279.138 415.266 253.918 405.678C232.643 397.747 210.779 394.199 189.633 390.761ZM328.226 438.874C347.455 447.268 367.312 455.948 386.972 463.862C411.325 473.631 425.073 490.907 431.511 510.924C439.286 535.095 436.361 563.292 428.389 587.017C419.067 614.883 395.018 630.615 371.826 645.827C361.641 652.516 351.087 659.421 341.948 667.237C318.409 687.437 297.013 713.237 276.361 738.164C264.808 752.12 252.854 766.497 240.96 779.392C209.659 813.205 192.039 845.592 185.571 881.268C179.899 912.445 182.14 947.611 193.064 998.854C194.225 1004.28 195.613 1010.42 197.101 1016.86C203.203 1043.72 210.836 1077.15 213.173 1110.19C215.962 1149.18 210.788 1177.66 197.238 1197.23C186.028 1213.46 168.808 1223.29 146.11 1226.4C112.416 1231.09 81.272 1219.46 53.5845 1191.9C33.2765 1171.66 14.8609 1143.21 -2.71706 1104.93C-11.3553 1086.11 -19.1508 1066.72 -26.6747 1048.03C-39.8483 1015.26 -52.2925 984.301 -69.1884 955.116C-88.3326 921.974 -109.737 897.116 -136.561 876.781C-159.57 859.364 -190.2 847.664 -222.599 835.314C-276.854 814.587 -332.821 793.24 -348.967 743.042C-350.232 739.11 -351.246 735.048 -351.993 730.753C-353.557 721.797 -355.818 712.041 -358.174 701.682C-365.204 670.884 -373.173 635.952 -366.816 609.479C-358.908 576.46 -327.207 547.833 -299.285 522.615C-290.852 515.027 -282.923 507.845 -275.994 500.886C-198.088 422.632 -107.652 367.262 -21.3662 344.921C29.0479 331.875 59.6501 341.975 105.277 368.013C132.213 383.387 161.228 388.097 189.32 392.666C210.363 396.088 232.124 399.62 253.164 407.578C278.356 417.078 303.722 428.179 328.226 438.874Z" fill="#1B8679"/>
<path d="M67.174 367.64C31.5552 353.01 -12.8667 356.035 -64.8418 376.507C-101.148 390.817 -141.126 413.721 -183.683 444.524C-210.383 463.838 -231.1 489.323 -251.163 513.963C-257.424 521.633 -263.879 529.609 -270.447 537.232C-273.747 541.072 -277.223 544.969 -280.581 548.78C-298.496 568.877 -316.976 589.644 -322.667 616.976C-327.26 639.078 -326.012 661.301 -318.877 683.483C-314.314 697.667 -307.374 711.818 -298.025 725.877C-279.775 753.358 -252.567 780.494 -217.126 806.395C-208.124 813.007 -199.077 819.459 -190.349 825.672C-132.363 867.093 -77.5973 906.233 -44.4012 976.545C-37.0499 992.124 -30.2112 1008.99 -23.6016 1025.29C-0.868759 1081.42 22.6804 1139.47 75.5465 1172.25C106.056 1191.16 132.978 1193.91 153.364 1180.28C167.335 1170.96 177.727 1154.31 183.436 1132.19C188.732 1111.66 189.587 1087.64 185.765 1064.54C182.606 1045.32 178.644 1027.09 174.793 1009.51C159.659 940.019 146.596 880.005 195.996 811.505C243.235 745.991 298.835 682.518 347.882 626.564C371.67 599.41 394.123 566.589 380.312 528.806C370.783 502.664 346.205 489.164 322.446 476.084C317.95 473.629 313.733 471.28 309.59 468.858C306.818 467.214 304.06 465.614 301.406 464.03C263.301 441.521 233.161 423.764 187.59 416.09C155.426 410.686 132.034 398.901 107.197 386.411C94.7418 380.129 81.7896 373.666 67.174 367.64ZM187.32 417.981C232.584 425.607 262.549 443.274 300.522 465.679C303.221 467.249 305.949 468.907 308.706 470.507C312.908 472.959 317.345 475.384 321.621 477.763C345.074 490.649 369.315 504.014 378.632 529.492C378.96 530.362 379.244 531.246 379.515 532.085C391.027 567.877 369.395 599.312 346.529 625.391C297.452 681.402 241.808 744.89 194.539 810.462C144.677 879.647 157.809 940.029 173.027 1009.93C176.878 1027.51 180.84 1045.74 183.97 1064.87C192.083 1114.05 179.067 1160.9 152.338 1178.76C132.602 1191.98 106.355 1189.21 76.5168 1170.72C24.1463 1138.27 0.740876 1080.51 -21.9067 1024.65C-28.5163 1008.35 -35.3692 991.437 -42.7347 975.814C-58.012 943.476 -78.1998 916.033 -106.337 889.342C-131.379 865.606 -159.497 845.492 -189.306 824.215C-198.034 818.002 -207.037 811.536 -216.083 804.938C-256.637 775.269 -300.905 733.142 -317.15 682.635C-323.745 662.132 -325.702 640.284 -320.894 617.332C-315.282 590.514 -296.951 569.892 -279.214 549.998C-275.842 546.232 -272.38 542.29 -269.036 538.436C-262.438 530.755 -255.968 522.823 -249.722 515.109C-229.778 490.555 -209.12 465.188 -182.613 446.032C-140.174 415.316 -100.314 392.5 -64.1407 378.232C-12.6517 357.916 31.2999 354.945 66.5099 369.365C81.0671 375.361 93.9751 381.839 106.43 388.121C131.326 400.641 154.893 412.515 187.32 417.981Z" fill="#1B8679"/>
<path d="M-231.571 568.66C-247.936 596.157 -256.163 621.818 -256.708 647.104C-256.984 660.651 -255.068 673.882 -250.818 687.094C-248.019 695.799 -244.205 704.471 -239.409 713.167C-216.997 753.742 -175.766 788.85 -135.845 822.769C-112.756 842.404 -88.8812 862.664 -69.6795 883.403C-44.323 910.695 -26.4272 943.898 -9.13616 975.978C7.03238 1005.93 23.7188 1036.89 46.5167 1063.2C55.1311 1073.16 64.8719 1080.7 74.6909 1085C84.5241 1089.35 93.9684 1090.21 101.982 1087.54C115.668 1082.94 124.026 1068.45 125.518 1046.71C127.024 1025.02 122.244 1003.64 117.604 982.997C114.043 967.077 110.342 950.567 109.605 934.178C107.299 882.893 137.166 840.228 166.006 798.917C170.686 792.243 175.486 785.336 180.019 778.661C188.624 765.848 198.02 753.221 207.966 739.88C236.108 702.158 265.159 663.168 275.931 618.892C280.03 601.922 280.06 585.188 276.002 569.086C272.282 554.338 265.107 540.214 254.751 526.967C236.254 503.417 207.87 483.389 174.742 470.591C174.684 470.561 174.684 470.561 174.64 470.575C150.761 464.554 127.908 453.23 105.828 442.34C85.238 432.141 63.903 421.596 42.2548 415.687C17.9424 409.074 -4.42903 409.102 -26.1363 415.743C-65.3246 427.762 -106.588 448.641 -142.313 474.613C-180.639 502.348 -211.516 534.904 -231.571 568.66ZM-25.582 417.466C22.0888 402.864 62.3928 422.813 105.019 443.917C127.171 454.881 150.083 466.235 174.122 472.302C231.27 494.44 291.718 545.941 274.116 618.403C263.465 662.299 234.505 701.113 206.467 738.704C196.52 752.045 187.08 764.687 178.445 777.558C173.926 784.277 169.112 791.14 164.477 797.8C150.184 818.244 135.428 839.373 124.549 861.791C112.214 887.261 106.709 910.924 107.755 934.187C108.505 950.768 112.176 967.336 115.765 983.345C120.363 1003.86 125.1 1025.1 123.612 1046.55C122.157 1067.49 114.26 1081.44 101.355 1085.74C85.858 1090.92 64.8625 1081.58 47.8801 1061.98C25.2273 1035.82 8.56939 1004.95 -7.52654 975.07C-24.9044 942.872 -42.8286 909.581 -68.3304 882.14C-87.6346 861.386 -111.538 841.037 -134.641 821.358C-174.431 787.543 -215.531 752.54 -237.799 712.26C-262.79 667.004 -260.198 620.337 -229.996 569.616C-190.962 504.06 -108.818 442.922 -25.582 417.466Z" fill="#1B8679"/>
<path d="M-43.9558 396.266C-87.3427 413.878 -137.028 442.682 -176.867 473.294C-201.227 492.002 -222.174 511.466 -239.13 531.059C-258.315 553.272 -272.365 575.686 -280.744 597.69C-292.277 627.778 -293.469 657.27 -284.344 685.639C-282.369 691.781 -279.937 697.825 -276.977 703.845C-252.09 754.84 -203.731 791.798 -156.974 827.566C-139.063 841.26 -122.186 854.165 -106.637 867.79C-65.5774 903.733 -44.4048 947.73 -22.0116 994.308C-9.98845 1019.26 2.39307 1045.02 18.1202 1069.51C26.309 1082.23 41.5744 1101.8 59.8204 1118.51C74.8684 1132.24 97.2131 1148.66 118.306 1148.75C132.368 1148.81 144.216 1141.68 153.451 1127.64C162.641 1113.62 165.876 1095.02 163.357 1070.82C161.169 1050.07 155.213 1028.83 149.965 1010.08C148.21 1003.87 146.555 997.967 145.159 992.565C126.749 920.472 136.07 866.228 176.301 811.062C224.098 745.613 269.208 680.15 319.019 607.471C319.049 607.412 319.049 607.412 319.079 607.354C330.678 584.9 331.445 562.272 321.345 540.118C308.246 511.369 279.472 489.37 257.668 476.002C232.771 460.751 202.331 447.821 176.24 441.439C150.735 435.21 127.461 424.703 104.978 414.528C57.7889 393.185 13.23 373.045 -43.9558 396.266ZM104.255 416.223C126.797 426.428 150.129 436.965 175.839 443.225C201.769 449.562 231.976 462.372 256.756 477.563C278.371 490.797 306.824 512.558 319.722 540.834C321.056 543.77 322.185 546.673 323.123 549.59C329.164 568.37 327.29 587.403 317.548 606.384C267.767 679.005 222.643 744.423 174.89 809.858C134.273 865.489 124.872 920.246 143.423 992.928C144.834 998.374 146.489 1004.28 148.243 1010.49C153.507 1029.13 159.434 1050.29 161.58 1070.9C164.059 1094.68 160.932 1112.85 151.965 1126.51C143.103 1140.04 131.787 1146.85 118.4 1146.77C78.9004 1146.6 32.8173 1088.67 19.7614 1068.39C4.06263 1043.99 -8.30467 1018.28 -20.2994 993.416C-42.7936 946.675 -64.0673 902.516 -105.359 866.306C-120.908 852.681 -137.843 839.746 -155.812 826.023C-202.424 790.403 -250.595 753.578 -275.264 702.953C-291.544 669.621 -292.787 634.378 -278.945 598.281C-244.12 507.359 -118.868 428.65 -43.1806 397.918C13.1941 375.056 57.4169 395.06 104.255 416.223Z" fill="#1B8679"/>
<path d="M-230.161 638.078C-231.843 655.587 -229.911 672.811 -224.354 690.089C-219.351 705.643 -211.382 721.17 -200.407 736.948C-180.12 766.066 -152.193 791.8 -127.615 813.637C-121.406 819.149 -115.035 824.706 -108.868 830.085C-85.9145 850.057 -62.1912 870.755 -41.9143 893.927C-26.0906 912.047 -13.4039 932.541 -1.07716 952.371C6.73124 964.975 14.8143 977.978 23.6091 990.313C24.5642 991.615 25.6914 993.3 27.0506 995.252C38.0667 1011.31 58.5659 1041.24 74.6869 1038.15C78.6876 1037.4 81.7474 1035.39 83.8063 1032.24C90.1758 1022.63 86.2912 1004.04 83.4256 990.431C82.5457 986.179 81.7622 982.53 81.4539 979.753C72.7846 906.867 102.589 861.881 140.357 804.973C144.175 799.259 148.069 793.325 152.023 787.275C154.902 782.887 157.812 778.441 160.735 774.038C180.741 743.614 201.39 712.154 217.445 679.149C229.389 654.584 234.5 634.851 233.929 615.189C233.418 596.923 228.099 577.96 216.118 551.778C200.794 518.235 166.574 503.254 139.09 491.176C124.04 484.559 109.506 476.361 95.4977 468.433C81.9708 460.789 67.9624 452.861 53.4983 446.396C24.4673 433.451 -9.31311 433.785 -46.9623 447.406C-74.8713 457.504 -104.468 474.484 -137.421 499.369C-162.62 518.348 -183.121 538.594 -198.343 559.484C-216.917 584.961 -227.619 611.418 -230.161 638.078ZM52.7899 448.136C67.1373 454.541 81.1315 462.424 94.6142 470.082C108.681 478.04 123.215 486.238 138.381 492.916C165.574 504.843 199.414 519.704 214.48 552.597C219.128 562.804 223.05 572.27 225.978 581.372C235.927 612.304 234.835 639.229 215.794 678.412C199.799 711.301 179.18 742.702 159.219 773.112C156.309 777.559 153.43 781.947 150.52 786.393C146.611 792.429 142.658 798.332 138.84 804.046C120.478 831.699 103.145 857.851 91.9307 885.593C79.5113 916.259 75.6127 946.281 79.6596 980.086C79.9821 982.908 80.7798 986.601 81.6739 990.897C84.44 1004.2 88.285 1022.37 82.2894 1031.31C80.4403 1034.06 77.8539 1035.72 74.3235 1036.41C59.394 1039.26 38.5617 1008.91 28.5434 994.284C27.1842 992.332 26.057 990.647 25.0877 989.301C16.3072 977.01 8.22409 964.007 0.474089 951.433C-11.8811 931.515 -24.6404 910.947 -40.5368 892.753C-60.9005 869.462 -84.668 848.778 -107.649 828.718C-113.817 823.339 -120.187 817.782 -126.397 812.27C-167.495 775.755 -207.538 736.609 -222.603 689.77C-227.805 673.597 -230.032 656.516 -228.284 638.303C-222.537 577.797 -175.091 530.209 -136.278 500.952C-60.4727 443.755 3.15811 426.019 52.7899 448.136Z" fill="#1B8679"/>
<path d="M-208.931 643.293C-209.958 659.957 -207.971 676.14 -202.826 692.136C-198.193 706.541 -191.019 720.812 -181.217 735.066C-163.045 761.548 -138.54 784.677 -114.833 806.99L-114.325 807.51C-65.5471 853.501 -25.2091 893.869 13.0282 941.349C24.6484 955.798 33.3046 961.791 40.2501 960.191C49.9321 958.003 54.0149 941.135 58.2694 923.286C60.3273 914.677 62.4909 905.789 65.316 898.201C79.9859 858.766 106.214 822.976 131.549 788.351C158.313 751.803 183.588 717.295 196.249 679.042C203.087 658.461 205.57 638.743 203.887 618.806C201.979 596.503 194.887 574.453 182.257 551.406C169.626 528.358 140.778 514.769 115.319 502.771C107.212 498.942 99.5146 495.323 92.8017 491.583C88.5258 489.204 84.2215 486.736 80.0923 484.359C57.4327 471.363 36.0721 459.071 9.03201 457.773C-14.4428 456.645 -40.2505 462.361 -67.6841 474.696C-90.0441 484.764 -113.331 499.227 -135.005 516.584C-155.983 533.376 -172.959 552.148 -185.474 572.361C-199.482 595.054 -207.397 618.956 -208.931 643.293ZM-133.772 517.992C-110.662 499.49 -50.5401 456.748 9.02761 459.579C35.569 460.842 56.7986 473.03 79.2246 485.905C83.3538 488.283 87.6581 490.751 91.9781 493.115C98.7937 496.872 106.447 500.505 114.598 504.32C139.779 516.211 168.335 529.651 180.707 552.196C232.757 647.016 182.892 715.13 130.152 787.191C104.713 821.947 78.4248 857.854 63.6793 897.508C60.7942 905.213 58.6448 914.145 56.5569 922.813C52.4111 940.091 48.4956 956.417 39.9025 958.352C33.7666 959.74 25.4624 953.781 14.4941 940.146C-23.8157 892.592 -64.168 852.179 -113.019 806.114L-113.527 805.595C-149.631 771.569 -186.65 736.668 -201.062 691.861C-205.866 676.926 -208.162 660.843 -207.067 643.327C-204.197 598.131 -178.2 553.59 -133.772 517.992Z" fill="#1B8679"/>
<path d="M-184.873 644.867C-184.904 658.871 -182.56 673.281 -177.842 687.952C-175.07 696.568 -171.478 705.311 -167.049 714.077C-144.507 758.999 -103.471 800.02 -70.2384 830.727C-66.0664 834.603 -61.2455 839.586 -55.6259 845.385C-43.3416 858.109 -28.0076 873.948 -12.5025 884.711C5.93219 897.456 20.8582 900.505 33.1845 893.956C46.4402 886.962 60.192 866.351 71.2143 849.836C75.8529 842.883 80.2233 836.309 83.9865 831.636C98.9066 812.99 114.663 793.001 128.1 771.565C166.425 710.625 180.109 657.513 168.799 613.708C159.588 578.249 133.757 548.574 91.9581 525.644C90.427 524.674 88.9402 523.689 87.4533 522.705C47.9435 497.039 13.8131 474.91 -36.4797 486.21C-60.6256 491.636 -84.9441 502.286 -106.781 517.014C-129.061 532.03 -147.871 550.709 -161.282 571.016C-176.8 594.779 -184.768 619.576 -184.873 644.867ZM-159.694 572.163C-132.901 531.461 -85.5286 499.256 -36.0596 488.123C13.4537 476.976 47.2921 498.955 86.423 524.352C87.9099 525.337 89.441 526.307 90.972 527.278L91.0304 527.308C129.925 548.636 154.843 575.777 165.218 608.034C165.872 610.066 166.482 612.113 167.017 614.233C178.245 657.479 164.61 710.136 126.584 770.639C113.162 791.973 97.4939 811.933 82.5596 830.535C78.7665 835.266 74.3518 841.854 69.6832 848.865C58.7509 865.205 45.1631 885.569 32.2908 892.391C20.6589 898.521 6.34851 895.567 -11.4595 883.254C-26.8194 872.64 -42.0808 856.875 -54.3067 844.18C-59.9264 838.381 -64.7756 833.31 -68.9918 829.449C-102.093 798.846 -142.984 757.973 -165.397 713.302C-169.869 704.403 -173.461 695.661 -176.246 687C-189.265 646.524 -183.773 608.724 -159.694 572.163Z" fill="#1B8679"/>
<path d="M-154.388 692.501C-141.511 732.535 -114.433 767.757 -93.0557 791.015C-76.8738 808.581 -60.831 825.411 -42.0965 837.572C-19.5281 852.255 1.81364 856.605 23.2465 850.93C39.9543 846.483 56.2838 836.159 71.85 820.279C83.454 808.453 94.6186 793.745 106.893 773.999C124.394 745.94 145.57 703.389 146.909 659.952C147.533 639.76 143.692 621.298 135.524 605.152C126.523 587.325 112.094 572.023 92.6567 559.649C87.8519 555.929 83.0928 552.047 78.4931 548.358C48.2336 523.862 19.6331 500.734 -23.0226 504.702C-41.7717 506.442 -61.8201 513.085 -80.9588 523.922C-98.9897 534.11 -115.424 547.441 -128.53 562.481C-158.694 597.099 -168.467 637.056 -157.63 681.208C-156.701 685.005 -155.596 688.745 -154.388 692.501ZM-127.119 563.685C-99.8076 532.325 -58.8506 509.887 -22.8218 506.539C19.0842 502.666 47.4085 525.541 77.3918 549.785C82.0057 553.518 86.809 557.386 91.6281 561.15C91.6423 561.195 91.6864 561.18 91.7007 561.224C116.095 576.734 132.224 596.559 139.927 620.509C143.822 632.617 145.562 645.758 145.134 659.89C143.843 702.872 122.817 745.131 105.407 773.014C87.9962 800.897 60.4951 839.096 22.8105 849.12C-25.2962 861.912 -65.2056 818.48 -91.6624 789.738C-113.634 765.843 -140.276 730.919 -152.925 691.592C-165.96 651.218 -164.119 606.158 -127.119 563.685Z" fill="#1B8679"/>
<path d="M-111.312 748.81C-100.03 767.513 -86.3234 784.51 -71.6101 797.964C-55.806 812.385 -39.5293 822.362 -23.2172 827.599C0.161001 835.097 22.95 831.668 44.5468 817.407C69.396 800.979 86.3521 774.413 96.187 754.964C108.466 730.682 116.781 703.628 118.931 680.751C121.58 652.301 108.906 616.688 85.0003 585.418C73.4889 570.397 59.9909 557.235 45.8275 547.309C30.586 536.608 15.2427 529.987 0.178007 527.568C-15.4438 525.083 -31.4863 526.294 -47.5533 531.218C-62.6781 535.888 -77.0859 543.545 -90.3489 554.003C-116.979 575.051 -135.14 604.541 -140.26 634.858C-143.489 654.23 -140.958 677.259 -133.311 701.032C-128.136 716.97 -120.733 733.165 -111.312 748.81ZM-138.341 635.216C-127.581 571.196 -60.3645 519.736 -0.0473242 529.444C28.4264 533.987 59.6875 555.382 83.5644 586.563C96.4366 603.389 106.007 621.472 111.65 639.015C116.354 653.641 118.303 667.886 117.127 680.6C112.874 726.046 84.1864 789.055 43.5649 815.87C22.4856 829.769 0.211136 833.131 -22.6115 825.844C-53.7141 815.856 -86.3024 786.697 -109.717 747.858C-133.016 709.226 -143.728 667.13 -138.341 635.216Z" fill="#1B8679"/>
<path d="M11.5221 805.99C34.6943 801.024 54.4192 786.098 68.5366 762.834C88.3749 730.22 95.1144 684.169 85.3208 648.263C80.3155 628.761 70.6483 610.075 57.2508 594.344C43.738 578.406 27.3931 566.549 10.0376 560.039C-2.93169 555.19 -16.0803 553.422 -29.042 554.812C-43.0327 556.338 -56.5335 561.509 -69.1466 570.198C-93.8852 587.273 -109.895 611.78 -115.342 641.081C-119.094 661.401 -117.516 682.982 -110.865 703.661C-108.52 710.952 -105.542 718.089 -101.989 725.04C-94.7976 739.061 -79.3984 765.411 -56.9663 784.672C-34.7095 803.844 -11.6801 811.015 11.5221 805.99ZM-100.293 724.25C-103.96 717.092 -106.967 709.868 -109.312 702.577C-125.5 652.247 -110.1 600.68 -68.1062 571.765C-37.8083 550.903 -9.23995 554.83 9.34351 561.823C41.9932 574.043 69.5599 604.72 81.2996 641.219C82.1097 643.738 82.8173 646.24 83.4948 648.802C93.1464 684.266 86.4715 729.76 66.8872 761.95C53.0096 784.747 33.728 799.384 11.0561 804.239C-47.6469 816.83 -88.9867 746.213 -100.293 724.25Z" fill="#1B8679"/>
<path d="M19.5159 709.265C22.7723 695.589 22.3856 679.379 18.4577 664.893C14.3182 649.598 6.8524 637.908 -2.62605 631.936C-22.6468 619.262 -36.3259 624.637 -44.2946 631.393C-53.4484 639.165 -60.0411 653.231 -62.4793 670.057C-64.5377 684.274 -63.4158 698.98 -59.4363 711.352C-58.7967 713.341 -58.0687 715.301 -57.2666 717.188C-49.0308 736.579 -33.9836 746.22 -14.9395 744.337C-5.91688 743.434 1.72729 739.61 7.83059 732.966C13.2364 727.034 17.242 718.87 19.5159 709.265ZM-15.0961 742.485C-33.288 744.29 -47.6785 735.022 -55.556 716.443C-61.1423 703.32 -62.9906 686.507 -60.6469 670.297C-58.3017 653.939 -51.8747 640.267 -43.106 632.815C-32.3821 623.71 -18.7477 623.956 -3.64056 633.481C5.41487 639.199 12.6202 650.534 16.6618 665.373C20.5044 679.594 20.9241 695.452 17.7151 708.82C14.9791 720.476 7.01924 740.297 -15.0961 742.485Z" fill="#1B8679"/>
<path d="M-0.969435 686.355C0.15561 677.119 -1.11346 668.019 -4.32318 661.981C-7.90709 655.235 -13.8513 652.369 -20.9436 653.967C-34.4952 657.01 -43.3443 665.122 -45.1492 676.186C-45.8854 680.567 -45.4347 685.152 -44.0276 689.526C-41.4978 697.392 -35.8352 704.688 -28.1341 709.379C-19.7038 714.518 -13.6834 711.557 -10.1252 708.218C-5.46869 703.746 -2.12601 695.796 -0.969435 686.355ZM-27.1922 707.759C-38.5837 700.843 -45.259 687.972 -43.3468 676.484C-41.6365 666.035 -33.529 658.649 -20.566 655.748C-12.5616 653.953 -8.19211 658.594 -5.94703 662.845C-5.24131 664.13 -4.68389 665.559 -4.20065 667.062C-0.0931688 679.832 -3.26167 699.087 -11.4464 706.839C-15.9388 711.064 -21.2416 711.404 -27.1922 707.759Z" fill="#1B8679"/>
<path d="M53.0911 735.278C60.5902 715.996 62.017 692.084 57.0613 667.884C52.1768 643.905 41.6284 622.48 27.4308 607.445C11.4905 590.631 -7.74951 583.264 -28.2723 586.159C-43.2382 588.291 -56.0524 593.778 -66.2886 602.581C-75.6507 610.614 -82.6907 621.167 -87.2587 633.949C-93.9294 652.624 -94.8893 675.41 -89.9323 698.098C-88.9672 702.615 -87.7511 707.002 -86.3724 711.288C-80.8294 728.522 -72.1414 744.012 -61.2414 755.767C-52.1125 765.655 -41.8811 772.603 -30.7507 776.435C-18.6259 780.629 -5.79955 780.94 7.34642 777.395C28.7793 771.72 44.5666 757.134 53.0911 735.278ZM6.89474 775.687C-17.5571 782.284 -41.2872 774.753 -59.908 754.607C-88.0349 724.159 -99.0279 672.548 -85.5336 634.613C-78.9529 616.113 -63.6044 593.038 -28.0131 588.026C-8.1374 585.242 10.5471 592.397 26.0517 608.766C36.9106 620.243 45.6002 635.586 51.2 652.996C52.7919 657.945 54.147 663.068 55.1928 668.29C64.3521 712.835 52.9419 763.314 6.89474 775.687Z" fill="#1B8679"/>
</g>
</svg>
