<?xml version="1.0" encoding="UTF-8"?>
<svg id="Capa_2" data-name="Capa 2" xmlns="http://www.w3.org/2000/svg" viewBox="0 0 700 820">
  <defs>
    <style>
      .cls-1 {
        fill: #fff;
      }

      .cls-2 {
        fill: #c5d7c4;
      }

      .cls-3 {
        fill: #b9a56d;
      }
    </style>
  </defs>
  <g id="Capa_1-2" data-name="Capa 1">
    <g>
      <g>
        <g>
          <path class="cls-2" d="M585.51,179.9c-6.25,0-12.62,3.99-15.99,10.19-17.23,37.19-33.85,76.64-50.78,120.5-24.21.76-53.14,1.91-87.26,4.47,31.4-68.59,49.32-127.47,49.32-162.34,0-14.32-2.82-24.58-8.63-31.35-.08-.1-.17-.19-.27-.29-12.21-11.99-29.84-18.07-52.41-18.07-79.62,0-207.79,81.4-207.79,131.97,0,5.74,1.47,10.61,4.49,14.9,1.39,1.97,4.06,2.53,6.13,1.3l1.08-.64c1.11-.67,1.9-1.77,2.15-3.04.26-1.27-.03-2.59-.8-3.64-1.59-2.17-2.33-4.78-2.33-8.23,0-37.68,116.83-115.24,189.13-115.24,16.7,0,29.01,4.34,36.59,12.91,2.59,3.5,3.91,9.24,3.91,17.07,0,29.42-19,85.91-56.47,167.93-110.85,10.95-110.85,23.45-110.85,28.81,0,.84.05,1.85.71,3.15.85,1.67,2.64,2.68,4.5,2.52l2.58-.21c1.56-.13,2.89-1.03,3.62-2.31,5.71-3.27,36.38-7.98,91.25-14-23.23,49.64-48.56,99.44-69.1,139.82-16.56,32.56-29.64,58.28-35.81,72.53-.63,1.59-.97,3.22-.97,4.71,0,4.66,3.11,8.04,7.4,8.04s9.04-3.74,12.87-10.39c5.23-9.83,14.37-25.21,25.94-44.7,26.09-43.93,65.36-110.05,95.68-173.73,33.58-3.39,63.34-5.62,89.75-7.57-20.03,53.42-30.18,89.9-30.18,108.49,0,1.11,0,2.35.23,3.7.93,32.12,22.8,34.63,29.51,34.63,3,0,5.26-.48,5.51-.54,1.21-.27,2.26-1.02,2.92-2.07.65-1.06.85-2.33.55-3.54l-.64-2.58c-.58-2.36-2.96-3.85-5.33-3.41,0,0-.75.13-1.93.13-5.58,0-15-2.75-15.58-21.1,1.04-16.53,16.04-49.46,31.92-84.31,4.72-10.36,9.59-21.05,14.25-31.64,12.02-.86,15.1-1.06,15.37-1.08,1.3,0,2.53-.54,3.4-1.5s1.3-2.24,1.19-3.53l-.22-2.36c-.15-1.59-1.1-2.99-2.53-3.7-1.51-.75-3.97-1.18-11.21-1.13,18.71-41.97,37.92-80.5,45.38-95.47,3.16-6.35,3.54-7.11,3.59-8,.43-2.86.65-5.59.65-7.91,0-13.37-7.48-18.14-14.49-18.14Z"/>
          <path class="cls-2" d="M168.31,146.06c42.24-21.49,96.14,21.12,126.37-16.67-32.57,17.78-65.24-14.04-109.7-13.34-80.33,1.27-107.66,102.92-64.91,185.62,12.54,24.26,22.69,44.69,30.95,62.58-.5-51.82-28.28-92.59-27.17-143.17.66-30.05,12.72-58.88,44.46-75.03Z"/>
          <path class="cls-2" d="M296.09,393.3c25.52,2.59,24.87,36.78,26.98,36.55,2.11-.23,3.21-14.82,2.95-20.19-.27-5.38-1.88-14.56-6.93-25.56-5.05-11-34.39-26.31-55.65.8-21.65,27.62-27.06,79.31-36.02,100.22-6.44,15.02-20.38,9.3-32.85.23-12.47-9.07-24.95-45.24-27.93-45.24s5.39,31.21,18.07,46.54c12.68,15.33,55.57,37.73,69.77-7.68,14.71-47.08,18.48-84.91,41.62-85.66Z"/>
        </g>
        <path class="cls-3" d="M585.43,8.87l-6.65-4.53c-11.42-7.78-26.99-4.83-34.77,6.6l-16.07,23.6c-4.68,6.87-5.45,15.23-2.86,22.5-61.87,63.06-176.95,104.26-236.48,156.9-57.61,50.93-85.17,125.25-68.13,188.7-.34-65.13,33.62-128.58,95.68-178.68,39.69-32.04,94.25-53.69,142.37-85.17,40.37-22.92,69.04-42.58,89.37-61.72,10.22,3.16,21.73-.52,28.07-9.83l16.07-23.6c7.78-11.42,4.83-26.99-6.6-34.77Z"/>
      </g>
      <g>
        <path class="cls-3" d="M85,798.03c0-12.51,9.83-22.03,22.03-22.03,6.1,0,11.17,2.38,14.95,6.16.43.43.37.85,0,1.28l-4.27,4.58c-.37.43-.85.43-1.28.06-2.56-2.14-5.61-3.54-9.4-3.54-7.51,0-13.18,5.74-13.18,13.49s5.68,13.43,13.18,13.43c3.78,0,6.84-1.4,9.4-3.54.43-.37.92-.37,1.28.06l4.27,4.58c.37.37.43.79,0,1.22-3.78,3.84-8.85,6.22-14.95,6.22-12.21,0-22.03-9.46-22.03-21.97Z"/>
        <path class="cls-3" d="M135.28,818.29v-40.89c0-.55.37-.92.92-.92h21.73c.55,0,.92.37.92.92v5.92c0,.55-.37.92-.92.92h-13.91v9.46h13.12c.55,0,.92.37.92.92v5.92c0,.55-.37.92-.92.92h-13.12v10.01h13.91c.55,0,.92.37.92.92v5.92c0,.55-.37.92-.92.92h-21.73c-.55,0-.92-.37-.92-.92Z"/>
        <path class="cls-3" d="M196.79,818.6l-15.26-28.13v27.83c0,.55-.37.92-.92.92h-6.9c-.55,0-.92-.37-.92-.92v-40.89c0-.55.37-.92.92-.92h8.12c.49,0,.85.18,1.1.61l15.26,28.13v-27.83c0-.55.37-.92.92-.92h6.9c.55,0,.92.37.92.92v40.89c0,.55-.37.92-.92.92h-8.12c-.49,0-.85-.18-1.1-.61Z"/>
        <path class="cls-3" d="M229.49,818.29v-34.05h-8.36c-.55,0-.92-.37-.92-.92v-5.92c0-.55.37-.92.92-.92h25.39c.55,0,.92.37.92.92v5.92c0,.55-.37.92-.92.92h-8.3v34.05c0,.55-.37.92-.92.92h-6.9c-.55,0-.92-.37-.92-.92Z"/>
        <path class="cls-3" d="M281.67,818.6l-9.03-14.34h-3.11v14.04c0,.55-.37.92-.92.92h-6.9c-.55,0-.92-.37-.92-.92v-40.89c0-.55.37-.92.92-.92h12.88c10.13,0,15.01,5.68,15.01,13.85,0,6.22-2.75,10.92-8.48,12.94l9.58,14.83c.43.67.12,1.1-.61,1.1h-7.32c-.49,0-.85-.18-1.1-.61ZM274.28,796.51c3.72,0,6.96-1.28,6.96-6.16s-3.23-6.1-6.96-6.1h-4.76v12.27h4.76Z"/>
        <path class="cls-3" d="M301.13,798.03c0-12.39,9.83-22.03,21.97-22.03s21.97,9.64,21.97,22.03-9.83,21.97-21.97,21.97-21.97-9.64-21.97-21.97ZM323.1,811.46c7.51,0,13.12-5.8,13.12-13.43s-5.61-13.49-13.12-13.49-13.12,5.8-13.12,13.49,5.68,13.43,13.12,13.43Z"/>
        <path class="cls-3" d="M376.9,818.29v-40.89c0-.55.37-.92.92-.92h12.57c14.28,0,21.79,9.34,21.79,21.36s-7.51,21.36-21.79,21.36h-12.57c-.55,0-.92-.37-.92-.92ZM390.27,811.46c8.67,0,13.06-4.82,13.06-13.61s-4.39-13.61-13.06-13.61h-4.64v27.22h4.64Z"/>
        <path class="cls-3" d="M425.17,818.29v-40.89c0-.55.37-.92.92-.92h21.73c.55,0,.92.37.92.92v5.92c0,.55-.37.92-.92.92h-13.91v9.46h13.12c.55,0,.92.37.92.92v5.92c0,.55-.37.92-.92.92h-13.12v10.01h13.91c.55,0,.92.37.92.92v5.92c0,.55-.37.92-.92.92h-21.73c-.55,0-.92-.37-.92-.92Z"/>
        <path class="cls-3" d="M486.68,818.6l-15.26-28.13v27.83c0,.55-.37.92-.92.92h-6.9c-.55,0-.92-.37-.92-.92v-40.89c0-.55.37-.92.92-.92h8.12c.49,0,.85.18,1.1.61l15.26,28.13v-27.83c0-.55.37-.92.92-.92h6.9c.55,0,.92.37.92.92v40.89c0,.55-.37.92-.92.92h-8.12c-.49,0-.85-.18-1.1-.61Z"/>
        <path class="cls-3" d="M519.38,818.29v-34.05h-8.36c-.55,0-.92-.37-.92-.92v-5.92c0-.55.37-.92.92-.92h25.39c.55,0,.92.37.92.92v5.92c0,.55-.37.92-.92.92h-8.3v34.05c0,.55-.37.92-.92.92h-6.9c-.55,0-.92-.37-.92-.92Z"/>
        <path class="cls-3" d="M541.9,818.17l14.28-40.95c.18-.49.67-.73,1.16-.73h7.38c.49,0,.98.24,1.16.73l14.28,40.95c.24.61-.12,1.04-.79,1.04h-7.2c-.49,0-.85-.18-1.04-.73l-2.07-6.29h-16.11l-2.08,6.29c-.18.55-.55.73-1.04.73h-7.2c-.67,0-.98-.43-.73-1.04ZM566.55,804.44l-5.55-16.97-5.55,16.97h11.11Z"/>
        <path class="cls-3" d="M592.3,818.29v-40.89c0-.55.37-.92.92-.92h6.9c.55,0,.92.37.92.92v34.05h13.06c.55,0,.92.37.92.92v5.92c0,.55-.37.92-.92.92h-20.87c-.55,0-.92-.37-.92-.92Z"/>
      </g>
      <g>
        <path class="cls-1" d="M0,675c0-30.86,24.14-55,56.83-55,23.38,0,41.71,12.53,41.71,26.89,0,6.72-4.28,11.46-10.69,11.46s-11-4.58-11-10.69c6.72,0,11.31-3.36,11.31-8.25,0-7.49-11-14.97-26.58-14.97-25.82,0-42.78,19.4-42.78,50.42s16.96,50.72,42.93,50.72c15.74,0,28.11-7.33,34.53-18.79l3.36,2.14c-6.57,12.07-22.61,21.08-42.63,21.08-31.78,0-56.99-23.37-56.99-55Z"/>
        <path class="cls-1" d="M113.2,675c0-31.32,24.14-55,56.38-55s56.37,23.68,56.37,55-24.29,55-56.37,55-56.38-23.68-56.38-55ZM207.16,675c0-31.32-14.97-51.94-37.58-51.94s-37.58,20.63-37.58,51.94,14.97,51.94,37.58,51.94,37.58-20.63,37.58-51.94Z"/>
        <path class="cls-1" d="M248.87,716.86v-83.72c0-4.58-1.38-9.32-3.67-11.61h47.51c22.31,0,39.42,12.83,39.42,30.56,0,15.89-13.6,27.65-32.39,30.1,8.4,1.83,15.58,5.96,18.79,12.68l12.07,22c2.6,4.89,6.88,9.63,10.85,11.61h-19.56c-4.28-2.29-8.1-6.11-10.54-10.54l-14.36-27.81c-1.83-3.21-4.58-5.96-8.25-7.49h-21.69v34.22c0,4.58,1.53,9.32,3.82,11.61h-25.67c2.29-2.29,3.67-7.03,3.67-11.61ZM267.05,624.58v55h21.69c14.82,0,24.6-10.85,24.6-27.5s-9.78-27.5-24.6-27.5h-21.69Z"/>
        <path class="cls-1" d="M358.55,709.99l38.81-88.46h7.03l40.18,91.82c2.9,6.72,6.87,12.68,9.93,15.12h-30.4c3.21-3.36,3.67-9.93.76-16.5l-6.11-13.9h-50.57l-5.19,12.07c-3.21,7.18-2.14,14.21,2.6,18.33h-20.17c4.28-2.75,9.17-9.63,13.14-18.49ZM417.37,695.01l-23.83-55.15-23.99,55.15h47.82Z"/>
        <path class="cls-1" d="M471.91,716.86v-83.72c0-4.58-1.38-9.32-3.67-11.61h45.22c32.85,0,57.75,23.07,57.75,53.47s-24.9,53.47-57.75,53.47h-45.22c2.29-2.29,3.67-7.03,3.67-11.61ZM490.09,624.58v100.83h20.63c25.06,0,41.71-20.01,41.71-50.42s-16.65-50.42-41.71-50.42h-20.63Z"/>
        <path class="cls-1" d="M587.25,675c0-31.32,24.14-55,56.38-55s56.37,23.68,56.37,55-24.29,55-56.37,55-56.38-23.68-56.38-55ZM681.21,675c0-31.32-14.97-51.94-37.58-51.94s-37.58,20.63-37.58,51.94,14.97,51.94,37.58,51.94,37.58-20.63,37.58-51.94Z"/>
      </g>
    </g>
  </g>
</svg>