<?xml version="1.0" encoding="utf-8"?>
<!-- Generator: Adobe Illustrator 28.0.0, SVG Export Plug-In . SVG Version: 6.00 Build 0)  -->
<svg version="1.1" id="Capa_1" xmlns="http://www.w3.org/2000/svg" xmlns:xlink="http://www.w3.org/1999/xlink" x="0px" y="0px"
	 viewBox="0 0 526 549" style="enable-background:new 0 0 526 549;" xml:space="preserve">
<style type="text/css">
	.st0{display:none;}
	.st1{display:inline;fill:#9177AA;}
	.st2{display:inline;fill:#FFFFFF;}
	.st3{fill:#9177AA;}
	.st4{fill:#80C9C4;}
</style>
<g class="st0">
	<path class="st1" d="M-302.4,795c0-10.2,7.8-18.1,17.9-18.1c5,0,9,1.8,12.1,4.8c0.4,0.3,0.4,0.7,0,1.1l-2.5,2.8
		c-0.3,0.3-0.6,0.3-1,0c-2.3-2-5-3.2-8.5-3.2c-7,0-12.3,5.3-12.3,12.6s5.3,12.5,12.3,12.5c3.4,0,6.1-1.2,8.5-3.2
		c0.4-0.3,0.8-0.3,1,0l2.5,2.8c0.4,0.3,0.3,0.7,0,1c-3.1,3-7.1,4.8-12.1,4.8C-294.7,813-302.4,805.2-302.4,795L-302.4,795z"/>
	<path class="st1" d="M-255.7,811.6v-33.5c0-0.5,0.2-0.8,0.7-0.8h4.1c0.5,0,0.8,0.3,0.8,0.8v33.5c0,0.5-0.3,0.8-0.8,0.8h-4.1
		C-255.5,812.3-255.7,812-255.7,811.6z"/>
	<path class="st1" d="M-215,811.8l-7.9-12.2h-4v12c0,0.5-0.3,0.8-0.8,0.8h-4.1c-0.5,0-0.7-0.3-0.7-0.8v-33.5c0-0.5,0.2-0.8,0.7-0.8
		h10.1c8,0,12,4.6,12,11.2c0,5.2-2.5,9.2-7.7,10.6l8.1,12.4c0.4,0.5,0.1,0.9-0.5,0.9h-4.4C-214.5,812.3-214.8,812.2-215,811.8
		L-215,811.8z M-221.8,794.6c3.7,0,6.8-1.5,6.8-6.2s-3.1-6.2-6.8-6.2h-5v12.3L-221.8,794.6L-221.8,794.6z"/>
	<path class="st1" d="M-193.6,799.8v-21.8c0-0.5,0.2-0.8,0.7-0.8h4.1c0.5,0,0.8,0.3,0.8,0.8v21.5c0,5.3,2.7,7.9,6.9,7.9
		s6.9-2.6,6.9-7.9v-21.5c0-0.5,0.3-0.8,0.8-0.8h4.1c0.5,0,0.8,0.3,0.8,0.8v21.8c0,8.6-5.1,13.2-12.6,13.2S-193.6,808.5-193.6,799.8z
		"/>
	<path class="st1" d="M-153.2,809.4c-0.3-0.4-0.3-0.8,0-1.2l2.2-2.9c0.2-0.3,0.6-0.3,1,0c1.2,1,2.6,2.2,5.2,2.2
		c3.5,0,5.8-2.2,5.8-7.4v-22c0-0.5,0.2-0.8,0.7-0.8h4.1c0.5,0,0.8,0.3,0.8,0.8V800c0,8.7-4.6,13-11.3,13
		C-148.9,813-151.6,811.2-153.2,809.4L-153.2,809.4z"/>
	<path class="st1" d="M-118.7,811.5l11.9-33.6c0.1-0.4,0.5-0.6,0.9-0.6h4.5c0.4,0,0.8,0.2,1,0.6l11.9,33.6c0.2,0.5,0,0.8-0.6,0.8
		h-4.4c-0.4,0-0.7-0.2-0.9-0.6l-2-6.1h-14.5l-2.1,6.1c-0.1,0.5-0.4,0.6-0.9,0.6h-4.3C-118.6,812.3-118.9,812-118.7,811.5
		L-118.7,811.5z M-98,800.6l-5.5-16.4l-5.5,16.4H-98L-98,800.6z"/>
	<path class="st1" d="M-52.9,811.8L-67.1,786v25.6c0,0.5-0.3,0.8-0.8,0.8H-72c-0.5,0-0.7-0.3-0.7-0.8v-33.5c0-0.5,0.2-0.8,0.7-0.8
		h5.1c0.4,0,0.7,0.2,0.9,0.5l14.3,26v-25.7c0-0.5,0.2-0.8,0.7-0.8h4.1c0.5,0,0.8,0.3,0.8,0.8v33.5c0,0.5-0.3,0.8-0.8,0.8H-52
		C-52.4,812.3-52.7,812.2-52.9,811.8L-52.9,811.8z"/>
	<path class="st1" d="M-29.5,795c0-10.2,8-18.1,18-18.1s18,7.9,18,18.1s-8,18-18,18S-29.5,805.1-29.5,795z M-11.5,807.5
		c7,0,12.3-5.3,12.3-12.5s-5.2-12.6-12.3-12.6s-12.3,5.3-12.3,12.6S-18.5,807.5-11.5,807.5z"/>
	<path class="st1" d="M43,811.6v-33.5c0-0.5,0.2-0.8,0.7-0.8h9.1c11.9,0,17.8,7.6,17.8,17.5s-5.9,17.5-17.8,17.5h-9.1
		C43.3,812.3,43,812,43,811.6L43,811.6z M52.7,807.3c8.3,0,12.3-4.6,12.3-12.5s-4-12.5-12.3-12.5h-4.1v25H52.7z"/>
	<path class="st1" d="M87.1,811.6v-33.5c0-0.5,0.2-0.8,0.7-0.8h17.4c0.5,0,0.7,0.3,0.7,0.8v3.5c0,0.5-0.2,0.8-0.7,0.8H92.7v9.6h11.8
		c0.5,0,0.8,0.3,0.8,0.8v3.5c0,0.5-0.3,0.7-0.8,0.7H92.7v10.4h12.5c0.5,0,0.8,0.3,0.8,0.8v3.5c0,0.5-0.3,0.8-0.8,0.8H87.8
		C87.3,812.3,87.1,812,87.1,811.6L87.1,811.6z"/>
	<path class="st1" d="M142.9,811.8L128.7,786v25.6c0,0.5-0.3,0.8-0.8,0.8h-4.2c-0.5,0-0.7-0.3-0.7-0.8v-33.5c0-0.5,0.2-0.8,0.7-0.8
		h5.1c0.4,0,0.7,0.2,0.9,0.5l14.3,26v-25.7c0-0.5,0.2-0.8,0.7-0.8h4.2c0.5,0,0.8,0.3,0.8,0.8v33.5c0,0.5-0.3,0.8-0.8,0.8h-5.1
		C143.4,812.3,143.1,812.2,142.9,811.8z"/>
	<path class="st1" d="M174.2,811.6v-29.3H167c-0.5,0-0.7-0.3-0.7-0.8v-3.5c0-0.5,0.2-0.8,0.7-0.8h19.9c0.5,0,0.8,0.3,0.8,0.8v3.5
		c0,0.5-0.3,0.8-0.8,0.8h-7.1v29.3c0,0.5-0.3,0.8-0.8,0.8h-4.2C174.4,812.3,174.2,812,174.2,811.6z"/>
	<path class="st1" d="M204.3,811.6v-33.5c0-0.5,0.2-0.8,0.7-0.8h4.2c0.5,0,0.8,0.3,0.8,0.8v33.5c0,0.5-0.3,0.8-0.8,0.8H205
		C204.6,812.3,204.3,812,204.3,811.6z"/>
	<path class="st1" d="M226.5,807.6c-0.2-0.3-0.2-0.7,0.1-1.1l2.1-2.4c0.4-0.5,0.8-0.4,1.2,0c2,2.3,4.2,3.8,7.5,3.8
		c3.7,0,5.9-1.8,5.9-4.8s-2.2-4.2-5.2-5.6l-4.2-2c-3.7-1.8-6.7-4.4-6.7-9.1c0-5.9,4.6-9.4,10.3-9.4c4.1,0,7.3,1.7,9.9,4.5
		c0.4,0.4,0.3,0.8,0,1.2l-2,2.5c-0.3,0.5-0.8,0.5-1.2,0.1c-2-2-4-3.1-6.5-3.1c-3,0-5,1.5-5,4.2c0,2.3,1.4,3.5,4.3,4.8l3.8,1.8
		c4,1.9,7.9,4.3,7.9,10.1c0,6.5-5.2,10-11.3,10C232.2,813,228.5,810.5,226.5,807.6L226.5,807.6z"/>
	<path class="st1" d="M270.4,811.6v-29.3h-7.2c-0.5,0-0.7-0.3-0.7-0.8v-3.5c0-0.5,0.2-0.8,0.7-0.8h19.9c0.5,0,0.8,0.3,0.8,0.8v3.5
		c0,0.5-0.3,0.8-0.8,0.8H276v29.3c0,0.5-0.3,0.8-0.8,0.8h-4.2C270.7,812.3,270.4,812,270.4,811.6z"/>
	<path class="st1" d="M293.4,811.5l11.9-33.6c0.2-0.4,0.5-0.6,0.9-0.6h4.5c0.4,0,0.8,0.2,1,0.6l11.9,33.6c0.2,0.5,0,0.8-0.6,0.8
		h-4.3c-0.4,0-0.7-0.2-0.8-0.6l-2-6.1h-14.5l-2.1,6.1c-0.2,0.5-0.4,0.6-0.8,0.6H294C293.5,812.3,293.2,812,293.4,811.5L293.4,811.5z
		 M314.1,800.6l-5.5-16.4l-5.5,16.4H314.1L314.1,800.6z"/>
	<path class="st1" d="M359.5,811.6v-33.5c0-0.5,0.2-0.8,0.7-0.8h17.4c0.5,0,0.7,0.3,0.7,0.8v3.5c0,0.5-0.2,0.8-0.7,0.8h-12.5v9.6
		h11.8c0.5,0,0.8,0.3,0.8,0.8v3.5c0,0.5-0.3,0.7-0.8,0.7h-11.8v10.4h12.5c0.5,0,0.8,0.3,0.8,0.8v3.5c0,0.5-0.3,0.8-0.8,0.8h-17.4
		C359.7,812.3,359.5,812,359.5,811.6L359.5,811.6z"/>
	<path class="st1" d="M415.3,811.8L401.1,786v25.6c0,0.5-0.3,0.8-0.8,0.8h-4.2c-0.5,0-0.7-0.3-0.7-0.8v-33.5c0-0.5,0.2-0.8,0.7-0.8
		h5.1c0.4,0,0.7,0.2,0.9,0.5l14.3,26v-25.7c0-0.5,0.2-0.8,0.7-0.8h4.2c0.5,0,0.8,0.3,0.8,0.8v33.5c0,0.5-0.3,0.8-0.8,0.8h-5.1
		C415.8,812.3,415.5,812.2,415.3,811.8z"/>
	<path class="st1" d="M439.7,811.6v-33.5c0-0.5,0.2-0.8,0.7-0.8h9.1c11.9,0,17.8,7.6,17.8,17.5s-5.9,17.5-17.8,17.5h-9.1
		C440,812.3,439.7,812,439.7,811.6L439.7,811.6z M449.4,807.3c8.3,0,12.3-4.6,12.3-12.5s-4-12.5-12.3-12.5h-4.1v25H449.4z"/>
	<path class="st1" d="M482.8,795c0-10.2,8-18.1,18-18.1s18,7.9,18,18.1s-8,18-18,18S482.8,805.1,482.8,795z M500.8,807.5
		c7,0,12.3-5.3,12.3-12.5s-5.2-12.6-12.3-12.6s-12.3,5.3-12.3,12.6S493.8,807.5,500.8,807.5z"/>
	<path class="st1" d="M535.4,811.6v-33.5c0-0.5,0.2-0.8,0.7-0.8h9.1c11.9,0,17.8,7.6,17.8,17.5s-5.9,17.5-17.8,17.5h-9.1
		C535.7,812.3,535.4,812,535.4,811.6L535.4,811.6z M545.1,807.3c8.3,0,12.3-4.6,12.3-12.5s-3.9-12.5-12.3-12.5H541v25H545.1z"/>
	<path class="st1" d="M578.5,795c0-10.2,8-18.1,18-18.1s18,7.9,18,18.1s-8,18-18,18S578.5,805.1,578.5,795z M596.5,807.5
		c7,0,12.3-5.3,12.3-12.5s-5.2-12.6-12.3-12.6s-12.3,5.3-12.3,12.6S589.5,807.5,596.5,807.5z"/>
	<path class="st1" d="M650.9,811.8L636.7,786v25.6c0,0.5-0.3,0.8-0.8,0.8h-4.2c-0.4,0-0.7-0.3-0.7-0.8v-33.5c0-0.5,0.2-0.8,0.7-0.8
		h5.1c0.4,0,0.7,0.2,0.9,0.5l14.3,26v-25.7c0-0.5,0.2-0.8,0.7-0.8h4.2c0.4,0,0.8,0.3,0.8,0.8v33.5c0,0.5-0.3,0.8-0.8,0.8h-5.1
		C651.4,812.3,651.2,812.2,650.9,811.8z"/>
	<path class="st1" d="M674.4,795c0-10.2,7.8-18.1,17.9-18.1c4.9,0,9,1.8,12.1,4.8c0.3,0.3,0.4,0.7,0.1,1.1l-2.6,2.8
		c-0.3,0.3-0.7,0.3-1.1,0c-2.3-2-5.1-3.2-8.5-3.2c-7,0-12.3,5.3-12.3,12.6s5.3,12.5,12.3,12.5c3.4,0,6.2-1.2,8.5-3.2
		c0.4-0.3,0.8-0.3,1.1,0l2.6,2.8c0.4,0.3,0.3,0.7-0.1,1c-3.1,3-7.1,4.8-12.1,4.8C682.1,813,674.4,805.2,674.4,795L674.4,795z"/>
	<path class="st1" d="M721.1,811.6v-33.5c0-0.5,0.2-0.8,0.7-0.8h4.2c0.4,0,0.8,0.3,0.8,0.8v33.5c0,0.5-0.3,0.8-0.8,0.8h-4.2
		C721.3,812.3,721.1,812,721.1,811.6z"/>
	<path class="st1" d="M743.2,807.6c-0.2-0.3-0.2-0.7,0.1-1.1l2.1-2.4c0.4-0.5,0.8-0.4,1.2,0c2.1,2.3,4.2,3.8,7.5,3.8
		c3.7,0,5.9-1.8,5.9-4.8s-2.2-4.2-5.2-5.6l-4.2-2c-3.7-1.8-6.7-4.4-6.7-9.1c0-5.9,4.6-9.4,10.3-9.4c4.1,0,7.3,1.7,9.9,4.5
		c0.4,0.4,0.3,0.8,0,1.2l-2.1,2.5c-0.3,0.5-0.8,0.5-1.2,0.1c-2.1-2-3.9-3.1-6.4-3.1c-2.9,0-5.1,1.5-5.1,4.2c0,2.3,1.4,3.5,4.3,4.8
		l3.8,1.8c3.9,1.9,7.9,4.3,7.9,10.1c0,6.5-5.2,10-11.3,10C748.9,813,745.3,810.5,743.2,807.6L743.2,807.6z"/>
	<path class="st1" d="M787.2,811.6v-29.3H780c-0.4,0-0.7-0.3-0.7-0.8v-3.5c0-0.5,0.2-0.8,0.7-0.8h19.9c0.4,0,0.8,0.3,0.8,0.8v3.5
		c0,0.5-0.3,0.8-0.8,0.8h-7.1v29.3c0,0.5-0.3,0.8-0.8,0.8h-4.2C787.4,812.3,787.2,812,787.2,811.6z"/>
	<path class="st1" d="M810.1,811.5l11.9-33.6c0.2-0.4,0.5-0.6,0.9-0.6h4.6c0.4,0,0.8,0.2,0.9,0.6l11.9,33.6c0.2,0.5-0.1,0.8-0.6,0.8
		h-4.3c-0.4,0-0.7-0.2-0.8-0.6l-2.1-6.1H818l-2.1,6.1c-0.2,0.5-0.4,0.6-0.8,0.6h-4.3C810.2,812.3,810,812,810.1,811.5L810.1,811.5z
		 M830.8,800.6l-5.6-16.4l-5.6,16.4H830.8L830.8,800.6z"/>
</g>
<g class="st0">
	<path class="st2" d="M-527.7,702.9v-86c0-4.1-1.4-8.2-3.3-10.4h43c32.6,0,57,23,57,53.3s-24.4,53.3-57,53.3h-43
		C-529,711.1-527.7,707-527.7,702.9L-527.7,702.9z M-514.1,609.6v100.6h24.1c27,0,44.8-20,44.8-50.3s-17.8-50.3-44.8-50.3H-514.1z"
		/>
	<path class="st2" d="M-410,702.9v-86c0-4.1-1.4-8.2-3.4-10.4h45.3c22.1,0,38.7,13,38.7,30.3c0,15.7-13.4,27.9-32,30.2
		c7.3,2,13.3,5.8,16.3,11.3l13.7,23.3c2.7,5,7.3,9.6,11.3,11.6h-15.2c-4.3-2.3-8.1-5.9-10.5-10.2l-15.4-27c-2-3.5-5.3-6.7-9.3-8.5
		h-25.9v35.4c0,4.1,1.4,8.2,3.4,10.4h-20.3C-411.4,711.1-410,707-410,702.9L-410,702.9z M-396.4,609.6v54.9h25.8
		c16.3,0,27.1-10.8,27.1-27.4s-10.8-27.4-27.1-27.4L-396.4,609.6L-396.4,609.6z"/>
	<path class="st2" d="M-306.5,696l39.3-89.5h6.1l40.7,93.3c2.7,6.1,6.2,11.3,9,13.4h-24.2c2.9-2.7,3.2-8.7,0.5-14.8l-7.3-16.8h-53.2
		l-6.4,14.6c-3,6.9-2.3,13.4,2,16.9h-18.3C-314.7,711.1-310.3,704.9-306.5,696L-306.5,696z M-243.9,678.7l-25.1-58.2l-25.3,58.2
		H-243.9L-243.9,678.7z"/>
	<path class="st2" d="M-199.8,704.7c0-5.3,4.1-9.6,9.5-9.6s9.5,4.3,9.5,9.6s-4.1,9.3-9.5,9.3S-199.8,710.1-199.8,704.7z"/>
	<path class="st2" d="M-118.3,702.9v-86c0-4.1-1.4-8.2-3.4-10.4h20.3c-2,2.1-3.4,6.2-3.4,10.4v40.7h63v-40.7c0-4.1-1.4-8.2-3.4-10.4
		h20.3c-2,2.1-3.3,6.2-3.3,10.4v86c0,4.1,1.4,8.2,3.3,10.4h-20.3c2-2.1,3.4-6.2,3.4-10.4v-42.2h-63v42.2c0,4.1,1.4,8.2,3.4,10.4
		h-20.3C-119.6,711.1-118.3,707-118.3,702.9z"/>
	<path class="st2" d="M1.1,702.9v-86c0-4.1-1.4-8.2-3.3-10.4h77v18.8c-4.3-9.5-13.1-15.7-21.8-15.7H14.6v48h31.1
		c6.7,0,13.4-3.5,16.8-8.8v20.7c-3.3-5.3-10.1-8.8-16.8-8.8H14.6v49.5h39.8c8.7,0,17.5-6.2,21.8-15.8v18.9H-2.3
		C-0.3,711.1,1,707,1.1,702.9L1.1,702.9z"/>
	<path class="st2" d="M127.4,702.9v-35.4l-30.5-45.9c-4.6-6.9-9.8-12.8-13-15.1h26.5c-3,2.9-2.7,8.7,0.9,14.2l28.2,42.5l29.1-43.9
		c3-4.9,3.3-9.9,0.3-12.8h16.9c-4.3,2.4-9.6,7.8-13.9,14.2L141,667.5v35.4c0,4.1,1.4,8.2,3.3,10.4h-20.3
		C126,711.1,127.4,707,127.4,702.9L127.4,702.9z"/>
	<path class="st2" d="M198.4,702.9v-86c0-4.1-1.4-8.2-3.3-10.4h43c32.6,0,57,23,57,53.3s-24.4,53.3-57,53.3h-43
		C197.1,711.1,198.4,707,198.4,702.9L198.4,702.9z M212,609.6v100.6h24.1c27,0,44.8-20,44.8-50.3s-17.8-50.3-44.8-50.3H212z"/>
	<path class="st2" d="M316.1,702.9v-86c0-4.1-1.4-8.2-3.3-10.4H333c-2,2.1-3.3,6.2-3.3,10.4v86c0,4.1,1.4,8.2,3.3,10.4h-20.3
		C314.7,711.1,316.1,707,316.1,702.9z"/>
	<path class="st2" d="M391.5,659.9c0-30.8,23.8-54.9,56.2-54.9c23.3,0,41.5,12.5,41.5,26.4c0,6.1-3.7,10.4-9.3,10.4
		s-9.8-4.1-9.8-9.5c5.8,0,9.8-3,9.8-7.3c0-7.8-12.2-16.3-29.4-16.3c-26.8,0-44.8,20.1-44.8,51.1s18.1,51.4,45,51.4
		c16.5,0,29.7-7.6,36.4-19.5l3.3,2.1c-6.6,12-22.7,21-42.5,21C416.2,714.8,391.5,691.4,391.5,659.9L391.5,659.9z"/>
	<path class="st2" d="M501.4,659.9c0-31.2,23.9-54.9,55.6-54.9s55.6,23.6,55.6,54.9s-23.9,54.9-55.6,54.9S501.4,691.2,501.4,659.9z
		 M598.5,659.9c0-31.2-16.5-51.8-41.5-51.8s-41.5,20.6-41.5,51.8s16.5,51.8,41.5,51.8S598.5,691.2,598.5,659.9z"/>
	<path class="st2" d="M633.7,702.9v-86c0-4.1-1.4-8.2-3.3-10.4h45.3c22.1,0,38.7,13,38.7,30.3c0,15.7-13.4,27.9-32,30.2
		c7.3,2,13.3,5.8,16.3,11.3l13.7,23.3c2.7,5,7.3,9.6,11.3,11.6h-15.2c-4.3-2.3-8.1-5.9-10.5-10.2l-15.4-27c-2-3.5-5.3-6.7-9.3-8.5
		h-25.9v35.4c0,4.1,1.4,8.2,3.3,10.4h-20.3C632.3,711.1,633.7,707,633.7,702.9L633.7,702.9z M647.3,609.6v54.9H673
		c16.3,0,27.1-10.8,27.1-27.4s-10.8-27.4-27.1-27.4L647.3,609.6L647.3,609.6z"/>
	<path class="st2" d="M737.2,696l39.3-89.5h6.1l40.7,93.3c2.7,6.1,6.2,11.3,9,13.4h-24.2c2.9-2.7,3.2-8.7,0.5-14.8l-7.3-16.8H748
		l-6.4,14.6c-3.1,6.9-2.3,13.4,2,16.9h-18.3C729,711.1,733.4,704.9,737.2,696L737.2,696z M799.8,678.7l-25.2-58.2l-25.3,58.2H799.8
		L799.8,678.7z"/>
	<path class="st2" d="M848.3,702.9v-86c0-4.1-1.4-8.2-3.3-10.4h43c32.6,0,57,23,57,53.3s-24.4,53.3-57,53.3h-43
		C846.9,711.1,848.3,707,848.3,702.9L848.3,702.9z M861.9,609.6v100.6h24.1c27,0,44.8-20,44.8-50.3s-17.8-50.3-44.8-50.3H861.9z"/>
	<path class="st2" d="M957.7,659.9c0-31.2,23.9-54.9,55.6-54.9s55.6,23.6,55.6,54.9s-23.9,54.9-55.6,54.9S957.7,691.2,957.7,659.9z
		 M1054.8,659.9c0-31.2-16.5-51.8-41.5-51.8s-41.5,20.6-41.5,51.8s16.5,51.8,41.5,51.8S1054.8,691.2,1054.8,659.9z"/>
</g>
<g>
	<path class="st3" d="M484.3,177.5c-5.7,0-11.5,3.6-14.6,9.3c-15.8,34-31,70.1-46.4,110.2c-22.1,0.7-48.6,1.8-79.8,4.1
		c28.7-62.7,45.1-116.5,45.1-148.4c0-13.1-2.6-22.5-7.9-28.7c-0.1-0.1-0.2-0.2-0.2-0.3c-11.2-11-27.3-16.5-47.9-16.5
		c-72.8,0-190,74.4-190,120.7c0,5.2,1.3,9.7,4.1,13.6c1.3,1.8,3.7,2.3,5.6,1.2l1-0.6c1-0.6,1.7-1.6,2-2.8s0-2.4-0.7-3.3
		c-1.5-2-2.1-4.4-2.1-7.5c0-34.4,106.8-105.4,172.9-105.4c15.3,0,26.5,4,33.5,11.8c2.4,3.2,3.6,8.4,3.6,15.6
		c0,26.9-17.4,78.6-51.6,153.5c-101.3,10-101.3,21.4-101.3,26.3c0,0.8,0,1.7,0.7,2.9c0.8,1.5,2.4,2.5,4.1,2.3l2.4-0.2
		c1.4-0.1,2.6-0.9,3.3-2.1c5.2-3,33.3-7.3,83.4-12.8c-21.2,45.4-44.4,90.9-63.2,127.8c-15.1,29.8-27.1,53.3-32.7,66.3
		c-0.6,1.5-0.9,3-0.9,4.3c0,4.3,2.8,7.3,6.8,7.3s8.3-3.4,11.8-9.5c4.8-9,13.1-23,23.7-40.9c23.9-40.2,59.8-100.6,87.5-158.8
		c30.7-3.1,57.9-5.1,82.1-6.9c-18.3,48.8-27.6,82.2-27.6,99.2c0,1,0,2.1,0.2,3.4c0.8,29.4,20.8,31.7,27,31.7c2.7,0,4.8-0.4,5-0.5
		c1.1-0.2,2.1-0.9,2.7-1.9c0.6-1,0.8-2.1,0.5-3.2l-0.6-2.4c-0.5-2.1-2.7-3.5-4.9-3.1c0,0-0.7,0.1-1.8,0.1c-5.1,0-13.7-2.5-14.2-19.3
		c1-15.1,14.7-45.2,29.2-77.1c4.3-9.5,8.8-19.2,13-28.9c11-0.8,13.8-1,14-1c1.2,0,2.3-0.5,3.1-1.4s1.2-2,1.1-3.2l-0.2-2.2
		c-0.1-1.5-1-2.7-2.3-3.4c-1.4-0.7-3.6-1.1-10.2-1c17.1-38.4,34.7-73.6,41.5-87.3c2.9-5.8,3.2-6.5,3.3-7.3c0.4-2.6,0.6-5.1,0.6-7.2
		C497.6,181.8,490.8,177.5,484.3,177.5L484.3,177.5z"/>
	<path class="st3" d="M102.9,146.6c38.6-19.6,87.9,19.3,115.5-15.2c-29.8,16.3-59.7-12.8-100.3-12.2c-73.4,1.2-98.4,94.1-59.3,169.7
		c11.5,22.2,20.8,40.9,28.3,57.2c-0.5-47.4-25.9-84.7-24.8-130.9C62.8,187.7,73.9,161.3,102.9,146.6L102.9,146.6z"/>
	<path class="st3" d="M219.7,372.6c23.3,2.4,22.7,33.6,24.7,33.4c1.9-0.2,2.9-13.5,2.7-18.5c-0.2-4.9-1.7-13.3-6.3-23.4
		c-4.6-10-31.5-24.1-50.9,0.7c-19.8,25.2-24.7,72.5-32.9,91.6c-5.9,13.7-18.6,8.5-30,0.2c-11.4-8.3-22.8-41.4-25.5-41.4
		s4.9,28.5,16.5,42.5c11.6,14,50.8,34.5,63.8-7C195.1,407.9,198.5,373.3,219.7,372.6L219.7,372.6z"/>
</g>
<path class="st4" d="M484.3,21.1l-6.1-4.1c-10.5-7.1-24.7-4.4-31.8,6l-14.7,21.6c-4.3,6.3-5,13.9-2.6,20.6
	c-56.6,57.7-161.8,95.3-216.2,143.5c-52.7,46.6-77.9,114.5-62.3,172.5c-0.3-59.5,30.8-117.6,87.5-163.4
	c36.3-29.3,86.2-49.1,130.2-77.9c36.9-21,63.1-38.9,81.7-56.4c9.3,2.9,19.9-0.5,25.7-9l14.7-21.6C497.4,42.5,494.7,28.2,484.3,21.1
	L484.3,21.1z"/>
</svg>
